<?xml version="1.0" encoding="utf-8" standalone="no"?>
<!DOCTYPE svg PUBLIC "-//W3C//DTD SVG 1.1//EN"
  "http://www.w3.org/Graphics/SVG/1.1/DTD/svg11.dtd">
<svg xmlns:xlink="http://www.w3.org/1999/xlink" width="1296pt" height="360pt" viewBox="0 0 1296 360" xmlns="http://www.w3.org/2000/svg" version="1.1">
 <metadata>
  <rdf:RDF xmlns:dc="http://purl.org/dc/elements/1.1/" xmlns:cc="http://creativecommons.org/ns#" xmlns:rdf="http://www.w3.org/1999/02/22-rdf-syntax-ns#">
   <cc:Work>
    <dc:type rdf:resource="http://purl.org/dc/dcmitype/StillImage"/>
    <dc:date>2025-05-31T07:28:20.799937</dc:date>
    <dc:format>image/svg+xml</dc:format>
    <dc:creator>
     <cc:Agent>
      <dc:title>Matplotlib v3.6.3, https://matplotlib.org/</dc:title>
     </cc:Agent>
    </dc:creator>
   </cc:Work>
  </rdf:RDF>
 </metadata>
 <defs>
  <style type="text/css">*{stroke-linejoin: round; stroke-linecap: butt}</style>
 </defs>
 <g id="figure_1">
  <g id="patch_1">
   <path d="M 0 360 
L 1296 360 
L 1296 0 
L 0 0 
z
" style="fill: #ffffff"/>
  </g>
  <g id="axes_1">
   <g id="patch_2">
    <path d="M 162 320.4 
L 426.315789 320.4 
L 426.315789 43.2 
L 162 43.2 
z
" style="fill: #ffffff"/>
   </g>
   <g id="patch_3">
    <path d="M 174.014354 320.4 
L 280.808612 320.4 
L 280.808612 89.4 
L 174.014354 89.4 
z
" clip-path="url(#pf7b733234d)" style="fill: #4682b4"/>
   </g>
   <g id="patch_4">
    <path d="M 307.507177 320.4 
L 414.301435 320.4 
L 414.301435 264.96 
L 307.507177 264.96 
z
" clip-path="url(#pf7b733234d)" style="fill: #808080"/>
   </g>
   <g id="matplotlib.axis_1">
    <g id="xtick_1">
     <g id="line2d_1">
      <path d="M 227.411483 320.4 
L 227.411483 43.2 
" clip-path="url(#pf7b733234d)" style="fill: none; stroke-dasharray: 2.22,0.96; stroke-dashoffset: 0; stroke: #b0b0b0; stroke-opacity: 0.7; stroke-width: 0.6"/>
     </g>
     <g id="line2d_2">
      <defs>
       <path id="m435f4d1e68" d="M 0 0 
L 0 -3.5 
" style="stroke: #1a1a1a; stroke-width: 0.8"/>
      </defs>
      <g>
       <use xlink:href="#m435f4d1e68" x="227.411483" y="320.4" style="fill: #1a1a1a; stroke: #1a1a1a; stroke-width: 0.8"/>
      </g>
     </g>
     <g id="text_1">
      <!-- CSAI -->
      <g style="fill: #1a1a1a" transform="translate(213.425858 333.018125) scale(0.12 -0.12)">
       <defs>
        <path id="DejaVuSans-43" d="M 4122 4306 
L 4122 3641 
Q 3803 3938 3442 4084 
Q 3081 4231 2675 4231 
Q 1875 4231 1450 3742 
Q 1025 3253 1025 2328 
Q 1025 1406 1450 917 
Q 1875 428 2675 428 
Q 3081 428 3442 575 
Q 3803 722 4122 1019 
L 4122 359 
Q 3791 134 3420 21 
Q 3050 -91 2638 -91 
Q 1578 -91 968 557 
Q 359 1206 359 2328 
Q 359 3453 968 4101 
Q 1578 4750 2638 4750 
Q 3056 4750 3426 4639 
Q 3797 4528 4122 4306 
z
" transform="scale(0.015625)"/>
        <path id="DejaVuSans-53" d="M 3425 4513 
L 3425 3897 
Q 3066 4069 2747 4153 
Q 2428 4238 2131 4238 
Q 1616 4238 1336 4038 
Q 1056 3838 1056 3469 
Q 1056 3159 1242 3001 
Q 1428 2844 1947 2747 
L 2328 2669 
Q 3034 2534 3370 2195 
Q 3706 1856 3706 1288 
Q 3706 609 3251 259 
Q 2797 -91 1919 -91 
Q 1588 -91 1214 -16 
Q 841 59 441 206 
L 441 856 
Q 825 641 1194 531 
Q 1563 422 1919 422 
Q 2459 422 2753 634 
Q 3047 847 3047 1241 
Q 3047 1584 2836 1778 
Q 2625 1972 2144 2069 
L 1759 2144 
Q 1053 2284 737 2584 
Q 422 2884 422 3419 
Q 422 4038 858 4394 
Q 1294 4750 2059 4750 
Q 2388 4750 2728 4690 
Q 3069 4631 3425 4513 
z
" transform="scale(0.015625)"/>
        <path id="DejaVuSans-41" d="M 2188 4044 
L 1331 1722 
L 3047 1722 
L 2188 4044 
z
M 1831 4666 
L 2547 4666 
L 4325 0 
L 3669 0 
L 3244 1197 
L 1141 1197 
L 716 0 
L 50 0 
L 1831 4666 
z
" transform="scale(0.015625)"/>
        <path id="DejaVuSans-49" d="M 628 4666 
L 1259 4666 
L 1259 0 
L 628 0 
L 628 4666 
z
" transform="scale(0.015625)"/>
       </defs>
       <use xlink:href="#DejaVuSans-43"/>
       <use xlink:href="#DejaVuSans-53" x="69.824219"/>
       <use xlink:href="#DejaVuSans-41" x="135.175781"/>
       <use xlink:href="#DejaVuSans-49" x="203.583984"/>
      </g>
     </g>
    </g>
    <g id="xtick_2">
     <g id="line2d_3">
      <path d="M 360.904306 320.4 
L 360.904306 43.2 
" clip-path="url(#pf7b733234d)" style="fill: none; stroke-dasharray: 2.22,0.96; stroke-dashoffset: 0; stroke: #b0b0b0; stroke-opacity: 0.7; stroke-width: 0.6"/>
     </g>
     <g id="line2d_4">
      <g>
       <use xlink:href="#m435f4d1e68" x="360.904306" y="320.4" style="fill: #1a1a1a; stroke: #1a1a1a; stroke-width: 0.8"/>
      </g>
     </g>
     <g id="text_2">
      <!-- Placebo -->
      <g style="fill: #1a1a1a" transform="translate(337.471494 333.018125) scale(0.12 -0.12)">
       <defs>
        <path id="DejaVuSans-50" d="M 1259 4147 
L 1259 2394 
L 2053 2394 
Q 2494 2394 2734 2622 
Q 2975 2850 2975 3272 
Q 2975 3691 2734 3919 
Q 2494 4147 2053 4147 
L 1259 4147 
z
M 628 4666 
L 2053 4666 
Q 2838 4666 3239 4311 
Q 3641 3956 3641 3272 
Q 3641 2581 3239 2228 
Q 2838 1875 2053 1875 
L 1259 1875 
L 1259 0 
L 628 0 
L 628 4666 
z
" transform="scale(0.015625)"/>
        <path id="DejaVuSans-6c" d="M 603 4863 
L 1178 4863 
L 1178 0 
L 603 0 
L 603 4863 
z
" transform="scale(0.015625)"/>
        <path id="DejaVuSans-61" d="M 2194 1759 
Q 1497 1759 1228 1600 
Q 959 1441 959 1056 
Q 959 750 1161 570 
Q 1363 391 1709 391 
Q 2188 391 2477 730 
Q 2766 1069 2766 1631 
L 2766 1759 
L 2194 1759 
z
M 3341 1997 
L 3341 0 
L 2766 0 
L 2766 531 
Q 2569 213 2275 61 
Q 1981 -91 1556 -91 
Q 1019 -91 701 211 
Q 384 513 384 1019 
Q 384 1609 779 1909 
Q 1175 2209 1959 2209 
L 2766 2209 
L 2766 2266 
Q 2766 2663 2505 2880 
Q 2244 3097 1772 3097 
Q 1472 3097 1187 3025 
Q 903 2953 641 2809 
L 641 3341 
Q 956 3463 1253 3523 
Q 1550 3584 1831 3584 
Q 2591 3584 2966 3190 
Q 3341 2797 3341 1997 
z
" transform="scale(0.015625)"/>
        <path id="DejaVuSans-63" d="M 3122 3366 
L 3122 2828 
Q 2878 2963 2633 3030 
Q 2388 3097 2138 3097 
Q 1578 3097 1268 2742 
Q 959 2388 959 1747 
Q 959 1106 1268 751 
Q 1578 397 2138 397 
Q 2388 397 2633 464 
Q 2878 531 3122 666 
L 3122 134 
Q 2881 22 2623 -34 
Q 2366 -91 2075 -91 
Q 1284 -91 818 406 
Q 353 903 353 1747 
Q 353 2603 823 3093 
Q 1294 3584 2113 3584 
Q 2378 3584 2631 3529 
Q 2884 3475 3122 3366 
z
" transform="scale(0.015625)"/>
        <path id="DejaVuSans-65" d="M 3597 1894 
L 3597 1613 
L 953 1613 
Q 991 1019 1311 708 
Q 1631 397 2203 397 
Q 2534 397 2845 478 
Q 3156 559 3463 722 
L 3463 178 
Q 3153 47 2828 -22 
Q 2503 -91 2169 -91 
Q 1331 -91 842 396 
Q 353 884 353 1716 
Q 353 2575 817 3079 
Q 1281 3584 2069 3584 
Q 2775 3584 3186 3129 
Q 3597 2675 3597 1894 
z
M 3022 2063 
Q 3016 2534 2758 2815 
Q 2500 3097 2075 3097 
Q 1594 3097 1305 2825 
Q 1016 2553 972 2059 
L 3022 2063 
z
" transform="scale(0.015625)"/>
        <path id="DejaVuSans-62" d="M 3116 1747 
Q 3116 2381 2855 2742 
Q 2594 3103 2138 3103 
Q 1681 3103 1420 2742 
Q 1159 2381 1159 1747 
Q 1159 1113 1420 752 
Q 1681 391 2138 391 
Q 2594 391 2855 752 
Q 3116 1113 3116 1747 
z
M 1159 2969 
Q 1341 3281 1617 3432 
Q 1894 3584 2278 3584 
Q 2916 3584 3314 3078 
Q 3713 2572 3713 1747 
Q 3713 922 3314 415 
Q 2916 -91 2278 -91 
Q 1894 -91 1617 61 
Q 1341 213 1159 525 
L 1159 0 
L 581 0 
L 581 4863 
L 1159 4863 
L 1159 2969 
z
" transform="scale(0.015625)"/>
        <path id="DejaVuSans-6f" d="M 1959 3097 
Q 1497 3097 1228 2736 
Q 959 2375 959 1747 
Q 959 1119 1226 758 
Q 1494 397 1959 397 
Q 2419 397 2687 759 
Q 2956 1122 2956 1747 
Q 2956 2369 2687 2733 
Q 2419 3097 1959 3097 
z
M 1959 3584 
Q 2709 3584 3137 3096 
Q 3566 2609 3566 1747 
Q 3566 888 3137 398 
Q 2709 -91 1959 -91 
Q 1206 -91 779 398 
Q 353 888 353 1747 
Q 353 2609 779 3096 
Q 1206 3584 1959 3584 
z
" transform="scale(0.015625)"/>
       </defs>
       <use xlink:href="#DejaVuSans-50"/>
       <use xlink:href="#DejaVuSans-6c" x="60.302734"/>
       <use xlink:href="#DejaVuSans-61" x="88.085938"/>
       <use xlink:href="#DejaVuSans-63" x="149.365234"/>
       <use xlink:href="#DejaVuSans-65" x="204.345703"/>
       <use xlink:href="#DejaVuSans-62" x="265.869141"/>
       <use xlink:href="#DejaVuSans-6f" x="329.345703"/>
      </g>
     </g>
    </g>
   </g>
   <g id="matplotlib.axis_2">
    <g id="ytick_1">
     <g id="line2d_5">
      <path d="M 162 320.4 
L 426.315789 320.4 
" clip-path="url(#pf7b733234d)" style="fill: none; stroke-dasharray: 2.22,0.96; stroke-dashoffset: 0; stroke: #b0b0b0; stroke-opacity: 0.7; stroke-width: 0.6"/>
     </g>
     <g id="line2d_6">
      <defs>
       <path id="m3bb0e6687f" d="M 0 0 
L 3.5 0 
" style="stroke: #1a1a1a; stroke-width: 0.8"/>
      </defs>
      <g>
       <use xlink:href="#m3bb0e6687f" x="162" y="320.4" style="fill: #1a1a1a; stroke: #1a1a1a; stroke-width: 0.8"/>
      </g>
     </g>
     <g id="text_3">
      <!-- 0.0 -->
      <g style="fill: #1a1a1a" transform="translate(139.41625 324.959063) scale(0.12 -0.12)">
       <defs>
        <path id="DejaVuSans-30" d="M 2034 4250 
Q 1547 4250 1301 3770 
Q 1056 3291 1056 2328 
Q 1056 1369 1301 889 
Q 1547 409 2034 409 
Q 2525 409 2770 889 
Q 3016 1369 3016 2328 
Q 3016 3291 2770 3770 
Q 2525 4250 2034 4250 
z
M 2034 4750 
Q 2819 4750 3233 4129 
Q 3647 3509 3647 2328 
Q 3647 1150 3233 529 
Q 2819 -91 2034 -91 
Q 1250 -91 836 529 
Q 422 1150 422 2328 
Q 422 3509 836 4129 
Q 1250 4750 2034 4750 
z
" transform="scale(0.015625)"/>
        <path id="DejaVuSans-2e" d="M 684 794 
L 1344 794 
L 1344 0 
L 684 0 
L 684 794 
z
" transform="scale(0.015625)"/>
       </defs>
       <use xlink:href="#DejaVuSans-30"/>
       <use xlink:href="#DejaVuSans-2e" x="63.623047"/>
       <use xlink:href="#DejaVuSans-30" x="95.410156"/>
      </g>
     </g>
    </g>
    <g id="ytick_2">
     <g id="line2d_7">
      <path d="M 162 274.2 
L 426.315789 274.2 
" clip-path="url(#pf7b733234d)" style="fill: none; stroke-dasharray: 2.22,0.96; stroke-dashoffset: 0; stroke: #b0b0b0; stroke-opacity: 0.7; stroke-width: 0.6"/>
     </g>
     <g id="line2d_8">
      <g>
       <use xlink:href="#m3bb0e6687f" x="162" y="274.2" style="fill: #1a1a1a; stroke: #1a1a1a; stroke-width: 0.8"/>
      </g>
     </g>
     <g id="text_4">
      <!-- 0.5 -->
      <g style="fill: #1a1a1a" transform="translate(139.41625 278.759063) scale(0.12 -0.12)">
       <defs>
        <path id="DejaVuSans-35" d="M 691 4666 
L 3169 4666 
L 3169 4134 
L 1269 4134 
L 1269 2991 
Q 1406 3038 1543 3061 
Q 1681 3084 1819 3084 
Q 2600 3084 3056 2656 
Q 3513 2228 3513 1497 
Q 3513 744 3044 326 
Q 2575 -91 1722 -91 
Q 1428 -91 1123 -41 
Q 819 9 494 109 
L 494 744 
Q 775 591 1075 516 
Q 1375 441 1709 441 
Q 2250 441 2565 725 
Q 2881 1009 2881 1497 
Q 2881 1984 2565 2268 
Q 2250 2553 1709 2553 
Q 1456 2553 1204 2497 
Q 953 2441 691 2322 
L 691 4666 
z
" transform="scale(0.015625)"/>
       </defs>
       <use xlink:href="#DejaVuSans-30"/>
       <use xlink:href="#DejaVuSans-2e" x="63.623047"/>
       <use xlink:href="#DejaVuSans-35" x="95.410156"/>
      </g>
     </g>
    </g>
    <g id="ytick_3">
     <g id="line2d_9">
      <path d="M 162 228 
L 426.315789 228 
" clip-path="url(#pf7b733234d)" style="fill: none; stroke-dasharray: 2.22,0.96; stroke-dashoffset: 0; stroke: #b0b0b0; stroke-opacity: 0.7; stroke-width: 0.6"/>
     </g>
     <g id="line2d_10">
      <g>
       <use xlink:href="#m3bb0e6687f" x="162" y="228" style="fill: #1a1a1a; stroke: #1a1a1a; stroke-width: 0.8"/>
      </g>
     </g>
     <g id="text_5">
      <!-- 1.0 -->
      <g style="fill: #1a1a1a" transform="translate(139.41625 232.559062) scale(0.12 -0.12)">
       <defs>
        <path id="DejaVuSans-31" d="M 794 531 
L 1825 531 
L 1825 4091 
L 703 3866 
L 703 4441 
L 1819 4666 
L 2450 4666 
L 2450 531 
L 3481 531 
L 3481 0 
L 794 0 
L 794 531 
z
" transform="scale(0.015625)"/>
       </defs>
       <use xlink:href="#DejaVuSans-31"/>
       <use xlink:href="#DejaVuSans-2e" x="63.623047"/>
       <use xlink:href="#DejaVuSans-30" x="95.410156"/>
      </g>
     </g>
    </g>
    <g id="ytick_4">
     <g id="line2d_11">
      <path d="M 162 181.8 
L 426.315789 181.8 
" clip-path="url(#pf7b733234d)" style="fill: none; stroke-dasharray: 2.22,0.96; stroke-dashoffset: 0; stroke: #b0b0b0; stroke-opacity: 0.7; stroke-width: 0.6"/>
     </g>
     <g id="line2d_12">
      <g>
       <use xlink:href="#m3bb0e6687f" x="162" y="181.8" style="fill: #1a1a1a; stroke: #1a1a1a; stroke-width: 0.8"/>
      </g>
     </g>
     <g id="text_6">
      <!-- 1.5 -->
      <g style="fill: #1a1a1a" transform="translate(139.41625 186.359062) scale(0.12 -0.12)">
       <use xlink:href="#DejaVuSans-31"/>
       <use xlink:href="#DejaVuSans-2e" x="63.623047"/>
       <use xlink:href="#DejaVuSans-35" x="95.410156"/>
      </g>
     </g>
    </g>
    <g id="ytick_5">
     <g id="line2d_13">
      <path d="M 162 135.6 
L 426.315789 135.6 
" clip-path="url(#pf7b733234d)" style="fill: none; stroke-dasharray: 2.22,0.96; stroke-dashoffset: 0; stroke: #b0b0b0; stroke-opacity: 0.7; stroke-width: 0.6"/>
     </g>
     <g id="line2d_14">
      <g>
       <use xlink:href="#m3bb0e6687f" x="162" y="135.6" style="fill: #1a1a1a; stroke: #1a1a1a; stroke-width: 0.8"/>
      </g>
     </g>
     <g id="text_7">
      <!-- 2.0 -->
      <g style="fill: #1a1a1a" transform="translate(139.41625 140.159063) scale(0.12 -0.12)">
       <defs>
        <path id="DejaVuSans-32" d="M 1228 531 
L 3431 531 
L 3431 0 
L 469 0 
L 469 531 
Q 828 903 1448 1529 
Q 2069 2156 2228 2338 
Q 2531 2678 2651 2914 
Q 2772 3150 2772 3378 
Q 2772 3750 2511 3984 
Q 2250 4219 1831 4219 
Q 1534 4219 1204 4116 
Q 875 4013 500 3803 
L 500 4441 
Q 881 4594 1212 4672 
Q 1544 4750 1819 4750 
Q 2544 4750 2975 4387 
Q 3406 4025 3406 3419 
Q 3406 3131 3298 2873 
Q 3191 2616 2906 2266 
Q 2828 2175 2409 1742 
Q 1991 1309 1228 531 
z
" transform="scale(0.015625)"/>
       </defs>
       <use xlink:href="#DejaVuSans-32"/>
       <use xlink:href="#DejaVuSans-2e" x="63.623047"/>
       <use xlink:href="#DejaVuSans-30" x="95.410156"/>
      </g>
     </g>
    </g>
    <g id="ytick_6">
     <g id="line2d_15">
      <path d="M 162 89.4 
L 426.315789 89.4 
" clip-path="url(#pf7b733234d)" style="fill: none; stroke-dasharray: 2.22,0.96; stroke-dashoffset: 0; stroke: #b0b0b0; stroke-opacity: 0.7; stroke-width: 0.6"/>
     </g>
     <g id="line2d_16">
      <g>
       <use xlink:href="#m3bb0e6687f" x="162" y="89.4" style="fill: #1a1a1a; stroke: #1a1a1a; stroke-width: 0.8"/>
      </g>
     </g>
     <g id="text_8">
      <!-- 2.5 -->
      <g style="fill: #1a1a1a" transform="translate(139.41625 93.959062) scale(0.12 -0.12)">
       <use xlink:href="#DejaVuSans-32"/>
       <use xlink:href="#DejaVuSans-2e" x="63.623047"/>
       <use xlink:href="#DejaVuSans-35" x="95.410156"/>
      </g>
     </g>
    </g>
    <g id="ytick_7">
     <g id="line2d_17">
      <path d="M 162 43.2 
L 426.315789 43.2 
" clip-path="url(#pf7b733234d)" style="fill: none; stroke-dasharray: 2.22,0.96; stroke-dashoffset: 0; stroke: #b0b0b0; stroke-opacity: 0.7; stroke-width: 0.6"/>
     </g>
     <g id="line2d_18">
      <g>
       <use xlink:href="#m3bb0e6687f" x="162" y="43.2" style="fill: #1a1a1a; stroke: #1a1a1a; stroke-width: 0.8"/>
      </g>
     </g>
     <g id="text_9">
      <!-- 3.0 -->
      <g style="fill: #1a1a1a" transform="translate(139.41625 47.759062) scale(0.12 -0.12)">
       <defs>
        <path id="DejaVuSans-33" d="M 2597 2516 
Q 3050 2419 3304 2112 
Q 3559 1806 3559 1356 
Q 3559 666 3084 287 
Q 2609 -91 1734 -91 
Q 1441 -91 1130 -33 
Q 819 25 488 141 
L 488 750 
Q 750 597 1062 519 
Q 1375 441 1716 441 
Q 2309 441 2620 675 
Q 2931 909 2931 1356 
Q 2931 1769 2642 2001 
Q 2353 2234 1838 2234 
L 1294 2234 
L 1294 2753 
L 1863 2753 
Q 2328 2753 2575 2939 
Q 2822 3125 2822 3475 
Q 2822 3834 2567 4026 
Q 2313 4219 1838 4219 
Q 1578 4219 1281 4162 
Q 984 4106 628 3988 
L 628 4550 
Q 988 4650 1302 4700 
Q 1616 4750 1894 4750 
Q 2613 4750 3031 4423 
Q 3450 4097 3450 3541 
Q 3450 3153 3228 2886 
Q 3006 2619 2597 2516 
z
" transform="scale(0.015625)"/>
       </defs>
       <use xlink:href="#DejaVuSans-33"/>
       <use xlink:href="#DejaVuSans-2e" x="63.623047"/>
       <use xlink:href="#DejaVuSans-30" x="95.410156"/>
      </g>
     </g>
    </g>
    <g id="text_10">
     <!-- Hours per Day -->
     <g style="fill: #1a1a1a" transform="translate(132.920625 225.0075) rotate(-90) scale(0.12 -0.12)">
      <defs>
       <path id="DejaVuSans-48" d="M 628 4666 
L 1259 4666 
L 1259 2753 
L 3553 2753 
L 3553 4666 
L 4184 4666 
L 4184 0 
L 3553 0 
L 3553 2222 
L 1259 2222 
L 1259 0 
L 628 0 
L 628 4666 
z
" transform="scale(0.015625)"/>
       <path id="DejaVuSans-75" d="M 544 1381 
L 544 3500 
L 1119 3500 
L 1119 1403 
Q 1119 906 1312 657 
Q 1506 409 1894 409 
Q 2359 409 2629 706 
Q 2900 1003 2900 1516 
L 2900 3500 
L 3475 3500 
L 3475 0 
L 2900 0 
L 2900 538 
Q 2691 219 2414 64 
Q 2138 -91 1772 -91 
Q 1169 -91 856 284 
Q 544 659 544 1381 
z
M 1991 3584 
L 1991 3584 
z
" transform="scale(0.015625)"/>
       <path id="DejaVuSans-72" d="M 2631 2963 
Q 2534 3019 2420 3045 
Q 2306 3072 2169 3072 
Q 1681 3072 1420 2755 
Q 1159 2438 1159 1844 
L 1159 0 
L 581 0 
L 581 3500 
L 1159 3500 
L 1159 2956 
Q 1341 3275 1631 3429 
Q 1922 3584 2338 3584 
Q 2397 3584 2469 3576 
Q 2541 3569 2628 3553 
L 2631 2963 
z
" transform="scale(0.015625)"/>
       <path id="DejaVuSans-73" d="M 2834 3397 
L 2834 2853 
Q 2591 2978 2328 3040 
Q 2066 3103 1784 3103 
Q 1356 3103 1142 2972 
Q 928 2841 928 2578 
Q 928 2378 1081 2264 
Q 1234 2150 1697 2047 
L 1894 2003 
Q 2506 1872 2764 1633 
Q 3022 1394 3022 966 
Q 3022 478 2636 193 
Q 2250 -91 1575 -91 
Q 1294 -91 989 -36 
Q 684 19 347 128 
L 347 722 
Q 666 556 975 473 
Q 1284 391 1588 391 
Q 1994 391 2212 530 
Q 2431 669 2431 922 
Q 2431 1156 2273 1281 
Q 2116 1406 1581 1522 
L 1381 1569 
Q 847 1681 609 1914 
Q 372 2147 372 2553 
Q 372 3047 722 3315 
Q 1072 3584 1716 3584 
Q 2034 3584 2315 3537 
Q 2597 3491 2834 3397 
z
" transform="scale(0.015625)"/>
       <path id="DejaVuSans-20" transform="scale(0.015625)"/>
       <path id="DejaVuSans-70" d="M 1159 525 
L 1159 -1331 
L 581 -1331 
L 581 3500 
L 1159 3500 
L 1159 2969 
Q 1341 3281 1617 3432 
Q 1894 3584 2278 3584 
Q 2916 3584 3314 3078 
Q 3713 2572 3713 1747 
Q 3713 922 3314 415 
Q 2916 -91 2278 -91 
Q 1894 -91 1617 61 
Q 1341 213 1159 525 
z
M 3116 1747 
Q 3116 2381 2855 2742 
Q 2594 3103 2138 3103 
Q 1681 3103 1420 2742 
Q 1159 2381 1159 1747 
Q 1159 1113 1420 752 
Q 1681 391 2138 391 
Q 2594 391 2855 752 
Q 3116 1113 3116 1747 
z
" transform="scale(0.015625)"/>
       <path id="DejaVuSans-44" d="M 1259 4147 
L 1259 519 
L 2022 519 
Q 2988 519 3436 956 
Q 3884 1394 3884 2338 
Q 3884 3275 3436 3711 
Q 2988 4147 2022 4147 
L 1259 4147 
z
M 628 4666 
L 1925 4666 
Q 3281 4666 3915 4102 
Q 4550 3538 4550 2338 
Q 4550 1131 3912 565 
Q 3275 0 1925 0 
L 628 0 
L 628 4666 
z
" transform="scale(0.015625)"/>
       <path id="DejaVuSans-79" d="M 2059 -325 
Q 1816 -950 1584 -1140 
Q 1353 -1331 966 -1331 
L 506 -1331 
L 506 -850 
L 844 -850 
Q 1081 -850 1212 -737 
Q 1344 -625 1503 -206 
L 1606 56 
L 191 3500 
L 800 3500 
L 1894 763 
L 2988 3500 
L 3597 3500 
L 2059 -325 
z
" transform="scale(0.015625)"/>
      </defs>
      <use xlink:href="#DejaVuSans-48"/>
      <use xlink:href="#DejaVuSans-6f" x="75.195312"/>
      <use xlink:href="#DejaVuSans-75" x="136.376953"/>
      <use xlink:href="#DejaVuSans-72" x="199.755859"/>
      <use xlink:href="#DejaVuSans-73" x="240.869141"/>
      <use xlink:href="#DejaVuSans-20" x="292.96875"/>
      <use xlink:href="#DejaVuSans-70" x="324.755859"/>
      <use xlink:href="#DejaVuSans-65" x="388.232422"/>
      <use xlink:href="#DejaVuSans-72" x="449.755859"/>
      <use xlink:href="#DejaVuSans-20" x="490.869141"/>
      <use xlink:href="#DejaVuSans-44" x="522.65625"/>
      <use xlink:href="#DejaVuSans-61" x="599.658203"/>
      <use xlink:href="#DejaVuSans-79" x="660.9375"/>
     </g>
    </g>
   </g>
   <g id="patch_5">
    <path d="M 162 320.4 
L 162 43.2 
" style="fill: none; stroke: #1a1a1a; stroke-linejoin: miter; stroke-linecap: square"/>
   </g>
   <g id="patch_6">
    <path d="M 162 320.4 
L 426.315789 320.4 
" style="fill: none; stroke: #1a1a1a; stroke-linejoin: miter; stroke-linecap: square"/>
   </g>
   <g id="text_11">
    <!-- OFF Time Reduction (h/day) -->
    <g style="fill: #333333" transform="translate(182.740395 37.2) scale(0.16 -0.16)">
     <defs>
      <path id="DejaVuSans-4f" d="M 2522 4238 
Q 1834 4238 1429 3725 
Q 1025 3213 1025 2328 
Q 1025 1447 1429 934 
Q 1834 422 2522 422 
Q 3209 422 3611 934 
Q 4013 1447 4013 2328 
Q 4013 3213 3611 3725 
Q 3209 4238 2522 4238 
z
M 2522 4750 
Q 3503 4750 4090 4092 
Q 4678 3434 4678 2328 
Q 4678 1225 4090 567 
Q 3503 -91 2522 -91 
Q 1538 -91 948 565 
Q 359 1222 359 2328 
Q 359 3434 948 4092 
Q 1538 4750 2522 4750 
z
" transform="scale(0.015625)"/>
      <path id="DejaVuSans-46" d="M 628 4666 
L 3309 4666 
L 3309 4134 
L 1259 4134 
L 1259 2759 
L 3109 2759 
L 3109 2228 
L 1259 2228 
L 1259 0 
L 628 0 
L 628 4666 
z
" transform="scale(0.015625)"/>
      <path id="DejaVuSans-54" d="M -19 4666 
L 3928 4666 
L 3928 4134 
L 2272 4134 
L 2272 0 
L 1638 0 
L 1638 4134 
L -19 4134 
L -19 4666 
z
" transform="scale(0.015625)"/>
      <path id="DejaVuSans-69" d="M 603 3500 
L 1178 3500 
L 1178 0 
L 603 0 
L 603 3500 
z
M 603 4863 
L 1178 4863 
L 1178 4134 
L 603 4134 
L 603 4863 
z
" transform="scale(0.015625)"/>
      <path id="DejaVuSans-6d" d="M 3328 2828 
Q 3544 3216 3844 3400 
Q 4144 3584 4550 3584 
Q 5097 3584 5394 3201 
Q 5691 2819 5691 2113 
L 5691 0 
L 5113 0 
L 5113 2094 
Q 5113 2597 4934 2840 
Q 4756 3084 4391 3084 
Q 3944 3084 3684 2787 
Q 3425 2491 3425 1978 
L 3425 0 
L 2847 0 
L 2847 2094 
Q 2847 2600 2669 2842 
Q 2491 3084 2119 3084 
Q 1678 3084 1418 2786 
Q 1159 2488 1159 1978 
L 1159 0 
L 581 0 
L 581 3500 
L 1159 3500 
L 1159 2956 
Q 1356 3278 1631 3431 
Q 1906 3584 2284 3584 
Q 2666 3584 2933 3390 
Q 3200 3197 3328 2828 
z
" transform="scale(0.015625)"/>
      <path id="DejaVuSans-52" d="M 2841 2188 
Q 3044 2119 3236 1894 
Q 3428 1669 3622 1275 
L 4263 0 
L 3584 0 
L 2988 1197 
Q 2756 1666 2539 1819 
Q 2322 1972 1947 1972 
L 1259 1972 
L 1259 0 
L 628 0 
L 628 4666 
L 2053 4666 
Q 2853 4666 3247 4331 
Q 3641 3997 3641 3322 
Q 3641 2881 3436 2590 
Q 3231 2300 2841 2188 
z
M 1259 4147 
L 1259 2491 
L 2053 2491 
Q 2509 2491 2742 2702 
Q 2975 2913 2975 3322 
Q 2975 3731 2742 3939 
Q 2509 4147 2053 4147 
L 1259 4147 
z
" transform="scale(0.015625)"/>
      <path id="DejaVuSans-64" d="M 2906 2969 
L 2906 4863 
L 3481 4863 
L 3481 0 
L 2906 0 
L 2906 525 
Q 2725 213 2448 61 
Q 2172 -91 1784 -91 
Q 1150 -91 751 415 
Q 353 922 353 1747 
Q 353 2572 751 3078 
Q 1150 3584 1784 3584 
Q 2172 3584 2448 3432 
Q 2725 3281 2906 2969 
z
M 947 1747 
Q 947 1113 1208 752 
Q 1469 391 1925 391 
Q 2381 391 2643 752 
Q 2906 1113 2906 1747 
Q 2906 2381 2643 2742 
Q 2381 3103 1925 3103 
Q 1469 3103 1208 2742 
Q 947 2381 947 1747 
z
" transform="scale(0.015625)"/>
      <path id="DejaVuSans-74" d="M 1172 4494 
L 1172 3500 
L 2356 3500 
L 2356 3053 
L 1172 3053 
L 1172 1153 
Q 1172 725 1289 603 
Q 1406 481 1766 481 
L 2356 481 
L 2356 0 
L 1766 0 
Q 1100 0 847 248 
Q 594 497 594 1153 
L 594 3053 
L 172 3053 
L 172 3500 
L 594 3500 
L 594 4494 
L 1172 4494 
z
" transform="scale(0.015625)"/>
      <path id="DejaVuSans-6e" d="M 3513 2113 
L 3513 0 
L 2938 0 
L 2938 2094 
Q 2938 2591 2744 2837 
Q 2550 3084 2163 3084 
Q 1697 3084 1428 2787 
Q 1159 2491 1159 1978 
L 1159 0 
L 581 0 
L 581 3500 
L 1159 3500 
L 1159 2956 
Q 1366 3272 1645 3428 
Q 1925 3584 2291 3584 
Q 2894 3584 3203 3211 
Q 3513 2838 3513 2113 
z
" transform="scale(0.015625)"/>
      <path id="DejaVuSans-28" d="M 1984 4856 
Q 1566 4138 1362 3434 
Q 1159 2731 1159 2009 
Q 1159 1288 1364 580 
Q 1569 -128 1984 -844 
L 1484 -844 
Q 1016 -109 783 600 
Q 550 1309 550 2009 
Q 550 2706 781 3412 
Q 1013 4119 1484 4856 
L 1984 4856 
z
" transform="scale(0.015625)"/>
      <path id="DejaVuSans-68" d="M 3513 2113 
L 3513 0 
L 2938 0 
L 2938 2094 
Q 2938 2591 2744 2837 
Q 2550 3084 2163 3084 
Q 1697 3084 1428 2787 
Q 1159 2491 1159 1978 
L 1159 0 
L 581 0 
L 581 4863 
L 1159 4863 
L 1159 2956 
Q 1366 3272 1645 3428 
Q 1925 3584 2291 3584 
Q 2894 3584 3203 3211 
Q 3513 2838 3513 2113 
z
" transform="scale(0.015625)"/>
      <path id="DejaVuSans-2f" d="M 1625 4666 
L 2156 4666 
L 531 -594 
L 0 -594 
L 1625 4666 
z
" transform="scale(0.015625)"/>
      <path id="DejaVuSans-29" d="M 513 4856 
L 1013 4856 
Q 1481 4119 1714 3412 
Q 1947 2706 1947 2009 
Q 1947 1309 1714 600 
Q 1481 -109 1013 -844 
L 513 -844 
Q 928 -128 1133 580 
Q 1338 1288 1338 2009 
Q 1338 2731 1133 3434 
Q 928 4138 513 4856 
z
" transform="scale(0.015625)"/>
     </defs>
     <use xlink:href="#DejaVuSans-4f"/>
     <use xlink:href="#DejaVuSans-46" x="78.710938"/>
     <use xlink:href="#DejaVuSans-46" x="136.230469"/>
     <use xlink:href="#DejaVuSans-20" x="193.75"/>
     <use xlink:href="#DejaVuSans-54" x="225.537109"/>
     <use xlink:href="#DejaVuSans-69" x="283.496094"/>
     <use xlink:href="#DejaVuSans-6d" x="311.279297"/>
     <use xlink:href="#DejaVuSans-65" x="408.691406"/>
     <use xlink:href="#DejaVuSans-20" x="470.214844"/>
     <use xlink:href="#DejaVuSans-52" x="502.001953"/>
     <use xlink:href="#DejaVuSans-65" x="566.984375"/>
     <use xlink:href="#DejaVuSans-64" x="628.507812"/>
     <use xlink:href="#DejaVuSans-75" x="691.984375"/>
     <use xlink:href="#DejaVuSans-63" x="755.363281"/>
     <use xlink:href="#DejaVuSans-74" x="810.34375"/>
     <use xlink:href="#DejaVuSans-69" x="849.552734"/>
     <use xlink:href="#DejaVuSans-6f" x="877.335938"/>
     <use xlink:href="#DejaVuSans-6e" x="938.517578"/>
     <use xlink:href="#DejaVuSans-20" x="1001.896484"/>
     <use xlink:href="#DejaVuSans-28" x="1033.683594"/>
     <use xlink:href="#DejaVuSans-68" x="1072.697266"/>
     <use xlink:href="#DejaVuSans-2f" x="1136.076172"/>
     <use xlink:href="#DejaVuSans-64" x="1169.767578"/>
     <use xlink:href="#DejaVuSans-61" x="1233.244141"/>
     <use xlink:href="#DejaVuSans-79" x="1294.523438"/>
     <use xlink:href="#DejaVuSans-29" x="1353.703125"/>
    </g>
   </g>
  </g>
  <g id="axes_2">
   <g id="patch_7">
    <path d="M 532.042105 320.4 
L 796.357895 320.4 
L 796.357895 43.2 
L 532.042105 43.2 
z
" style="fill: #ffffff"/>
   </g>
   <g id="matplotlib.axis_3">
    <g id="xtick_3">
     <g id="line2d_19">
      <path d="M 544.056459 320.4 
L 544.056459 43.2 
" clip-path="url(#pc98425b848)" style="fill: none; stroke-dasharray: 2.22,0.96; stroke-dashoffset: 0; stroke: #b0b0b0; stroke-opacity: 0.7; stroke-width: 0.6"/>
     </g>
     <g id="line2d_20">
      <g>
       <use xlink:href="#m435f4d1e68" x="544.056459" y="320.4" style="fill: #1a1a1a; stroke: #1a1a1a; stroke-width: 0.8"/>
      </g>
     </g>
     <g id="text_12">
      <!-- 0 -->
      <g style="fill: #1a1a1a" transform="translate(540.238959 333.018125) scale(0.12 -0.12)">
       <use xlink:href="#DejaVuSans-30"/>
      </g>
     </g>
    </g>
    <g id="xtick_4">
     <g id="line2d_21">
      <path d="M 604.12823 320.4 
L 604.12823 43.2 
" clip-path="url(#pc98425b848)" style="fill: none; stroke-dasharray: 2.22,0.96; stroke-dashoffset: 0; stroke: #b0b0b0; stroke-opacity: 0.7; stroke-width: 0.6"/>
     </g>
     <g id="line2d_22">
      <g>
       <use xlink:href="#m435f4d1e68" x="604.12823" y="320.4" style="fill: #1a1a1a; stroke: #1a1a1a; stroke-width: 0.8"/>
      </g>
     </g>
     <g id="text_13">
      <!-- 2 -->
      <g style="fill: #1a1a1a" transform="translate(600.31073 333.018125) scale(0.12 -0.12)">
       <use xlink:href="#DejaVuSans-32"/>
      </g>
     </g>
    </g>
    <g id="xtick_5">
     <g id="line2d_23">
      <path d="M 784.343541 320.4 
L 784.343541 43.2 
" clip-path="url(#pc98425b848)" style="fill: none; stroke-dasharray: 2.22,0.96; stroke-dashoffset: 0; stroke: #b0b0b0; stroke-opacity: 0.7; stroke-width: 0.6"/>
     </g>
     <g id="line2d_24">
      <g>
       <use xlink:href="#m435f4d1e68" x="784.343541" y="320.4" style="fill: #1a1a1a; stroke: #1a1a1a; stroke-width: 0.8"/>
      </g>
     </g>
     <g id="text_14">
      <!-- 8 -->
      <g style="fill: #1a1a1a" transform="translate(780.526041 333.018125) scale(0.12 -0.12)">
       <defs>
        <path id="DejaVuSans-38" d="M 2034 2216 
Q 1584 2216 1326 1975 
Q 1069 1734 1069 1313 
Q 1069 891 1326 650 
Q 1584 409 2034 409 
Q 2484 409 2743 651 
Q 3003 894 3003 1313 
Q 3003 1734 2745 1975 
Q 2488 2216 2034 2216 
z
M 1403 2484 
Q 997 2584 770 2862 
Q 544 3141 544 3541 
Q 544 4100 942 4425 
Q 1341 4750 2034 4750 
Q 2731 4750 3128 4425 
Q 3525 4100 3525 3541 
Q 3525 3141 3298 2862 
Q 3072 2584 2669 2484 
Q 3125 2378 3379 2068 
Q 3634 1759 3634 1313 
Q 3634 634 3220 271 
Q 2806 -91 2034 -91 
Q 1263 -91 848 271 
Q 434 634 434 1313 
Q 434 1759 690 2068 
Q 947 2378 1403 2484 
z
M 1172 3481 
Q 1172 3119 1398 2916 
Q 1625 2713 2034 2713 
Q 2441 2713 2670 2916 
Q 2900 3119 2900 3481 
Q 2900 3844 2670 4047 
Q 2441 4250 2034 4250 
Q 1625 4250 1398 4047 
Q 1172 3844 1172 3481 
z
" transform="scale(0.015625)"/>
       </defs>
       <use xlink:href="#DejaVuSans-38"/>
      </g>
     </g>
    </g>
    <g id="text_15">
     <!-- Week -->
     <g style="fill: #1a1a1a" transform="translate(647.761875 348.631875) scale(0.12 -0.12)">
      <defs>
       <path id="DejaVuSans-57" d="M 213 4666 
L 850 4666 
L 1831 722 
L 2809 4666 
L 3519 4666 
L 4500 722 
L 5478 4666 
L 6119 4666 
L 4947 0 
L 4153 0 
L 3169 4050 
L 2175 0 
L 1381 0 
L 213 4666 
z
" transform="scale(0.015625)"/>
       <path id="DejaVuSans-6b" d="M 581 4863 
L 1159 4863 
L 1159 1991 
L 2875 3500 
L 3609 3500 
L 1753 1863 
L 3688 0 
L 2938 0 
L 1159 1709 
L 1159 0 
L 581 0 
L 581 4863 
z
" transform="scale(0.015625)"/>
      </defs>
      <use xlink:href="#DejaVuSans-57"/>
      <use xlink:href="#DejaVuSans-65" x="93.001953"/>
      <use xlink:href="#DejaVuSans-65" x="154.525391"/>
      <use xlink:href="#DejaVuSans-6b" x="216.048828"/>
     </g>
    </g>
   </g>
   <g id="matplotlib.axis_4">
    <g id="ytick_8">
     <g id="line2d_25">
      <path d="M 532.042105 307.8 
L 796.357895 307.8 
" clip-path="url(#pc98425b848)" style="fill: none; stroke-dasharray: 2.22,0.96; stroke-dashoffset: 0; stroke: #b0b0b0; stroke-opacity: 0.7; stroke-width: 0.6"/>
     </g>
     <g id="line2d_26">
      <g>
       <use xlink:href="#m3bb0e6687f" x="532.042105" y="307.8" style="fill: #1a1a1a; stroke: #1a1a1a; stroke-width: 0.8"/>
      </g>
     </g>
     <g id="text_16">
      <!-- 0.00 -->
      <g style="fill: #1a1a1a" transform="translate(501.823355 312.359062) scale(0.12 -0.12)">
       <use xlink:href="#DejaVuSans-30"/>
       <use xlink:href="#DejaVuSans-2e" x="63.623047"/>
       <use xlink:href="#DejaVuSans-30" x="95.410156"/>
       <use xlink:href="#DejaVuSans-30" x="159.033203"/>
      </g>
     </g>
    </g>
    <g id="ytick_9">
     <g id="line2d_27">
      <path d="M 532.042105 276.3 
L 796.357895 276.3 
" clip-path="url(#pc98425b848)" style="fill: none; stroke-dasharray: 2.22,0.96; stroke-dashoffset: 0; stroke: #b0b0b0; stroke-opacity: 0.7; stroke-width: 0.6"/>
     </g>
     <g id="line2d_28">
      <g>
       <use xlink:href="#m3bb0e6687f" x="532.042105" y="276.3" style="fill: #1a1a1a; stroke: #1a1a1a; stroke-width: 0.8"/>
      </g>
     </g>
     <g id="text_17">
      <!-- 0.25 -->
      <g style="fill: #1a1a1a" transform="translate(501.823355 280.859062) scale(0.12 -0.12)">
       <use xlink:href="#DejaVuSans-30"/>
       <use xlink:href="#DejaVuSans-2e" x="63.623047"/>
       <use xlink:href="#DejaVuSans-32" x="95.410156"/>
       <use xlink:href="#DejaVuSans-35" x="159.033203"/>
      </g>
     </g>
    </g>
    <g id="ytick_10">
     <g id="line2d_29">
      <path d="M 532.042105 244.8 
L 796.357895 244.8 
" clip-path="url(#pc98425b848)" style="fill: none; stroke-dasharray: 2.22,0.96; stroke-dashoffset: 0; stroke: #b0b0b0; stroke-opacity: 0.7; stroke-width: 0.6"/>
     </g>
     <g id="line2d_30">
      <g>
       <use xlink:href="#m3bb0e6687f" x="532.042105" y="244.8" style="fill: #1a1a1a; stroke: #1a1a1a; stroke-width: 0.8"/>
      </g>
     </g>
     <g id="text_18">
      <!-- 0.50 -->
      <g style="fill: #1a1a1a" transform="translate(501.823355 249.359062) scale(0.12 -0.12)">
       <use xlink:href="#DejaVuSans-30"/>
       <use xlink:href="#DejaVuSans-2e" x="63.623047"/>
       <use xlink:href="#DejaVuSans-35" x="95.410156"/>
       <use xlink:href="#DejaVuSans-30" x="159.033203"/>
      </g>
     </g>
    </g>
    <g id="ytick_11">
     <g id="line2d_31">
      <path d="M 532.042105 213.3 
L 796.357895 213.3 
" clip-path="url(#pc98425b848)" style="fill: none; stroke-dasharray: 2.22,0.96; stroke-dashoffset: 0; stroke: #b0b0b0; stroke-opacity: 0.7; stroke-width: 0.6"/>
     </g>
     <g id="line2d_32">
      <g>
       <use xlink:href="#m3bb0e6687f" x="532.042105" y="213.3" style="fill: #1a1a1a; stroke: #1a1a1a; stroke-width: 0.8"/>
      </g>
     </g>
     <g id="text_19">
      <!-- 0.75 -->
      <g style="fill: #1a1a1a" transform="translate(501.823355 217.859062) scale(0.12 -0.12)">
       <defs>
        <path id="DejaVuSans-37" d="M 525 4666 
L 3525 4666 
L 3525 4397 
L 1831 0 
L 1172 0 
L 2766 4134 
L 525 4134 
L 525 4666 
z
" transform="scale(0.015625)"/>
       </defs>
       <use xlink:href="#DejaVuSans-30"/>
       <use xlink:href="#DejaVuSans-2e" x="63.623047"/>
       <use xlink:href="#DejaVuSans-37" x="95.410156"/>
       <use xlink:href="#DejaVuSans-35" x="159.033203"/>
      </g>
     </g>
    </g>
    <g id="ytick_12">
     <g id="line2d_33">
      <path d="M 532.042105 181.8 
L 796.357895 181.8 
" clip-path="url(#pc98425b848)" style="fill: none; stroke-dasharray: 2.22,0.96; stroke-dashoffset: 0; stroke: #b0b0b0; stroke-opacity: 0.7; stroke-width: 0.6"/>
     </g>
     <g id="line2d_34">
      <g>
       <use xlink:href="#m3bb0e6687f" x="532.042105" y="181.8" style="fill: #1a1a1a; stroke: #1a1a1a; stroke-width: 0.8"/>
      </g>
     </g>
     <g id="text_20">
      <!-- 1.00 -->
      <g style="fill: #1a1a1a" transform="translate(501.823355 186.359062) scale(0.12 -0.12)">
       <use xlink:href="#DejaVuSans-31"/>
       <use xlink:href="#DejaVuSans-2e" x="63.623047"/>
       <use xlink:href="#DejaVuSans-30" x="95.410156"/>
       <use xlink:href="#DejaVuSans-30" x="159.033203"/>
      </g>
     </g>
    </g>
    <g id="ytick_13">
     <g id="line2d_35">
      <path d="M 532.042105 150.3 
L 796.357895 150.3 
" clip-path="url(#pc98425b848)" style="fill: none; stroke-dasharray: 2.22,0.96; stroke-dashoffset: 0; stroke: #b0b0b0; stroke-opacity: 0.7; stroke-width: 0.6"/>
     </g>
     <g id="line2d_36">
      <g>
       <use xlink:href="#m3bb0e6687f" x="532.042105" y="150.3" style="fill: #1a1a1a; stroke: #1a1a1a; stroke-width: 0.8"/>
      </g>
     </g>
     <g id="text_21">
      <!-- 1.25 -->
      <g style="fill: #1a1a1a" transform="translate(501.823355 154.859062) scale(0.12 -0.12)">
       <use xlink:href="#DejaVuSans-31"/>
       <use xlink:href="#DejaVuSans-2e" x="63.623047"/>
       <use xlink:href="#DejaVuSans-32" x="95.410156"/>
       <use xlink:href="#DejaVuSans-35" x="159.033203"/>
      </g>
     </g>
    </g>
    <g id="ytick_14">
     <g id="line2d_37">
      <path d="M 532.042105 118.8 
L 796.357895 118.8 
" clip-path="url(#pc98425b848)" style="fill: none; stroke-dasharray: 2.22,0.96; stroke-dashoffset: 0; stroke: #b0b0b0; stroke-opacity: 0.7; stroke-width: 0.6"/>
     </g>
     <g id="line2d_38">
      <g>
       <use xlink:href="#m3bb0e6687f" x="532.042105" y="118.8" style="fill: #1a1a1a; stroke: #1a1a1a; stroke-width: 0.8"/>
      </g>
     </g>
     <g id="text_22">
      <!-- 1.50 -->
      <g style="fill: #1a1a1a" transform="translate(501.823355 123.359062) scale(0.12 -0.12)">
       <use xlink:href="#DejaVuSans-31"/>
       <use xlink:href="#DejaVuSans-2e" x="63.623047"/>
       <use xlink:href="#DejaVuSans-35" x="95.410156"/>
       <use xlink:href="#DejaVuSans-30" x="159.033203"/>
      </g>
     </g>
    </g>
    <g id="ytick_15">
     <g id="line2d_39">
      <path d="M 532.042105 87.3 
L 796.357895 87.3 
" clip-path="url(#pc98425b848)" style="fill: none; stroke-dasharray: 2.22,0.96; stroke-dashoffset: 0; stroke: #b0b0b0; stroke-opacity: 0.7; stroke-width: 0.6"/>
     </g>
     <g id="line2d_40">
      <g>
       <use xlink:href="#m3bb0e6687f" x="532.042105" y="87.3" style="fill: #1a1a1a; stroke: #1a1a1a; stroke-width: 0.8"/>
      </g>
     </g>
     <g id="text_23">
      <!-- 1.75 -->
      <g style="fill: #1a1a1a" transform="translate(501.823355 91.859062) scale(0.12 -0.12)">
       <use xlink:href="#DejaVuSans-31"/>
       <use xlink:href="#DejaVuSans-2e" x="63.623047"/>
       <use xlink:href="#DejaVuSans-37" x="95.410156"/>
       <use xlink:href="#DejaVuSans-35" x="159.033203"/>
      </g>
     </g>
    </g>
    <g id="ytick_16">
     <g id="line2d_41">
      <path d="M 532.042105 55.8 
L 796.357895 55.8 
" clip-path="url(#pc98425b848)" style="fill: none; stroke-dasharray: 2.22,0.96; stroke-dashoffset: 0; stroke: #b0b0b0; stroke-opacity: 0.7; stroke-width: 0.6"/>
     </g>
     <g id="line2d_42">
      <g>
       <use xlink:href="#m3bb0e6687f" x="532.042105" y="55.8" style="fill: #1a1a1a; stroke: #1a1a1a; stroke-width: 0.8"/>
      </g>
     </g>
     <g id="text_24">
      <!-- 2.00 -->
      <g style="fill: #1a1a1a" transform="translate(501.823355 60.359062) scale(0.12 -0.12)">
       <use xlink:href="#DejaVuSans-32"/>
       <use xlink:href="#DejaVuSans-2e" x="63.623047"/>
       <use xlink:href="#DejaVuSans-30" x="95.410156"/>
       <use xlink:href="#DejaVuSans-30" x="159.033203"/>
      </g>
     </g>
    </g>
    <g id="text_25">
     <!-- ON Time Gain (hours) -->
     <g style="fill: #1a1a1a" transform="translate(495.32773 246.758437) rotate(-90) scale(0.12 -0.12)">
      <defs>
       <path id="DejaVuSans-4e" d="M 628 4666 
L 1478 4666 
L 3547 763 
L 3547 4666 
L 4159 4666 
L 4159 0 
L 3309 0 
L 1241 3903 
L 1241 0 
L 628 0 
L 628 4666 
z
" transform="scale(0.015625)"/>
       <path id="DejaVuSans-47" d="M 3809 666 
L 3809 1919 
L 2778 1919 
L 2778 2438 
L 4434 2438 
L 4434 434 
Q 4069 175 3628 42 
Q 3188 -91 2688 -91 
Q 1594 -91 976 548 
Q 359 1188 359 2328 
Q 359 3472 976 4111 
Q 1594 4750 2688 4750 
Q 3144 4750 3555 4637 
Q 3966 4525 4313 4306 
L 4313 3634 
Q 3963 3931 3569 4081 
Q 3175 4231 2741 4231 
Q 1884 4231 1454 3753 
Q 1025 3275 1025 2328 
Q 1025 1384 1454 906 
Q 1884 428 2741 428 
Q 3075 428 3337 486 
Q 3600 544 3809 666 
z
" transform="scale(0.015625)"/>
      </defs>
      <use xlink:href="#DejaVuSans-4f"/>
      <use xlink:href="#DejaVuSans-4e" x="78.710938"/>
      <use xlink:href="#DejaVuSans-20" x="153.515625"/>
      <use xlink:href="#DejaVuSans-54" x="185.302734"/>
      <use xlink:href="#DejaVuSans-69" x="243.261719"/>
      <use xlink:href="#DejaVuSans-6d" x="271.044922"/>
      <use xlink:href="#DejaVuSans-65" x="368.457031"/>
      <use xlink:href="#DejaVuSans-20" x="429.980469"/>
      <use xlink:href="#DejaVuSans-47" x="461.767578"/>
      <use xlink:href="#DejaVuSans-61" x="539.257812"/>
      <use xlink:href="#DejaVuSans-69" x="600.537109"/>
      <use xlink:href="#DejaVuSans-6e" x="628.320312"/>
      <use xlink:href="#DejaVuSans-20" x="691.699219"/>
      <use xlink:href="#DejaVuSans-28" x="723.486328"/>
      <use xlink:href="#DejaVuSans-68" x="762.5"/>
      <use xlink:href="#DejaVuSans-6f" x="825.878906"/>
      <use xlink:href="#DejaVuSans-75" x="887.060547"/>
      <use xlink:href="#DejaVuSans-72" x="950.439453"/>
      <use xlink:href="#DejaVuSans-73" x="991.552734"/>
      <use xlink:href="#DejaVuSans-29" x="1043.652344"/>
     </g>
    </g>
   </g>
   <g id="line2d_43">
    <path d="M 544.056459 307.8 
L 604.12823 156.6 
L 784.343541 55.8 
" clip-path="url(#pc98425b848)" style="fill: none; stroke: #4682b4; stroke-width: 1.5; stroke-linecap: square"/>
    <defs>
     <path id="m6455dfac09" d="M 0 3 
C 0.795609 3 1.55874 2.683901 2.12132 2.12132 
C 2.683901 1.55874 3 0.795609 3 0 
C 3 -0.795609 2.683901 -1.55874 2.12132 -2.12132 
C 1.55874 -2.683901 0.795609 -3 0 -3 
C -0.795609 -3 -1.55874 -2.683901 -2.12132 -2.12132 
C -2.683901 -1.55874 -3 -0.795609 -3 0 
C -3 0.795609 -2.683901 1.55874 -2.12132 2.12132 
C -1.55874 2.683901 -0.795609 3 0 3 
z
"/>
    </defs>
    <g clip-path="url(#pc98425b848)">
     <use xlink:href="#m6455dfac09" x="544.056459" y="307.8" style="fill: #4682b4"/>
     <use xlink:href="#m6455dfac09" x="604.12823" y="156.6" style="fill: #4682b4"/>
     <use xlink:href="#m6455dfac09" x="784.343541" y="55.8" style="fill: #4682b4"/>
    </g>
   </g>
   <g id="line2d_44">
    <path d="M 544.056459 307.8 
L 604.12823 282.6 
L 784.343541 270 
" clip-path="url(#pc98425b848)" style="fill: none; stroke: #808080; stroke-width: 1.5; stroke-linecap: square"/>
    <defs>
     <path id="me995e3e56d" d="M -3 3 
L 3 3 
L 3 -3 
L -3 -3 
z
"/>
    </defs>
    <g clip-path="url(#pc98425b848)">
     <use xlink:href="#me995e3e56d" x="544.056459" y="307.8" style="fill: #808080"/>
     <use xlink:href="#me995e3e56d" x="604.12823" y="282.6" style="fill: #808080"/>
     <use xlink:href="#me995e3e56d" x="784.343541" y="270" style="fill: #808080"/>
    </g>
   </g>
   <g id="patch_8">
    <path d="M 532.042105 320.4 
L 532.042105 43.2 
" style="fill: none; stroke: #1a1a1a; stroke-linejoin: miter; stroke-linecap: square"/>
   </g>
   <g id="patch_9">
    <path d="M 532.042105 320.4 
L 796.357895 320.4 
" style="fill: none; stroke: #1a1a1a; stroke-linejoin: miter; stroke-linecap: square"/>
   </g>
   <g id="text_26">
    <!-- ON Time Without Dyskinesia Over Time -->
    <g style="fill: #333333" transform="translate(506.35125 37.2) scale(0.16 -0.16)">
     <defs>
      <path id="DejaVuSans-76" d="M 191 3500 
L 800 3500 
L 1894 563 
L 2988 3500 
L 3597 3500 
L 2284 0 
L 1503 0 
L 191 3500 
z
" transform="scale(0.015625)"/>
     </defs>
     <use xlink:href="#DejaVuSans-4f"/>
     <use xlink:href="#DejaVuSans-4e" x="78.710938"/>
     <use xlink:href="#DejaVuSans-20" x="153.515625"/>
     <use xlink:href="#DejaVuSans-54" x="185.302734"/>
     <use xlink:href="#DejaVuSans-69" x="243.261719"/>
     <use xlink:href="#DejaVuSans-6d" x="271.044922"/>
     <use xlink:href="#DejaVuSans-65" x="368.457031"/>
     <use xlink:href="#DejaVuSans-20" x="429.980469"/>
     <use xlink:href="#DejaVuSans-57" x="461.767578"/>
     <use xlink:href="#DejaVuSans-69" x="558.394531"/>
     <use xlink:href="#DejaVuSans-74" x="586.177734"/>
     <use xlink:href="#DejaVuSans-68" x="625.386719"/>
     <use xlink:href="#DejaVuSans-6f" x="688.765625"/>
     <use xlink:href="#DejaVuSans-75" x="749.947266"/>
     <use xlink:href="#DejaVuSans-74" x="813.326172"/>
     <use xlink:href="#DejaVuSans-20" x="852.535156"/>
     <use xlink:href="#DejaVuSans-44" x="884.322266"/>
     <use xlink:href="#DejaVuSans-79" x="961.324219"/>
     <use xlink:href="#DejaVuSans-73" x="1020.503906"/>
     <use xlink:href="#DejaVuSans-6b" x="1072.603516"/>
     <use xlink:href="#DejaVuSans-69" x="1130.513672"/>
     <use xlink:href="#DejaVuSans-6e" x="1158.296875"/>
     <use xlink:href="#DejaVuSans-65" x="1221.675781"/>
     <use xlink:href="#DejaVuSans-73" x="1283.199219"/>
     <use xlink:href="#DejaVuSans-69" x="1335.298828"/>
     <use xlink:href="#DejaVuSans-61" x="1363.082031"/>
     <use xlink:href="#DejaVuSans-20" x="1424.361328"/>
     <use xlink:href="#DejaVuSans-4f" x="1456.148438"/>
     <use xlink:href="#DejaVuSans-76" x="1534.859375"/>
     <use xlink:href="#DejaVuSans-65" x="1594.039062"/>
     <use xlink:href="#DejaVuSans-72" x="1655.5625"/>
     <use xlink:href="#DejaVuSans-20" x="1696.675781"/>
     <use xlink:href="#DejaVuSans-54" x="1728.462891"/>
     <use xlink:href="#DejaVuSans-69" x="1786.421875"/>
     <use xlink:href="#DejaVuSans-6d" x="1814.205078"/>
     <use xlink:href="#DejaVuSans-65" x="1911.617188"/>
    </g>
   </g>
   <g id="legend_1">
    <g id="patch_10">
     <path d="M 539.042105 80.55625 
L 610.096793 80.55625 
Q 612.096793 80.55625 612.096793 78.55625 
L 612.096793 50.2 
Q 612.096793 48.2 610.096793 48.2 
L 539.042105 48.2 
Q 537.042105 48.2 537.042105 50.2 
L 537.042105 78.55625 
Q 537.042105 80.55625 539.042105 80.55625 
z
" style="fill: #ffffff; opacity: 0.8; stroke: #cccccc; stroke-linejoin: miter"/>
    </g>
    <g id="line2d_45">
     <path d="M 541.042105 56.298437 
L 551.042105 56.298437 
L 561.042105 56.298437 
" style="fill: none; stroke: #4682b4; stroke-width: 1.5; stroke-linecap: square"/>
     <g>
      <use xlink:href="#m6455dfac09" x="551.042105" y="56.298437" style="fill: #4682b4"/>
     </g>
    </g>
    <g id="text_27">
     <!-- CSAI -->
     <g style="fill: #333333" transform="translate(569.042105 59.798437) scale(0.1 -0.1)">
      <use xlink:href="#DejaVuSans-43"/>
      <use xlink:href="#DejaVuSans-53" x="69.824219"/>
      <use xlink:href="#DejaVuSans-41" x="135.175781"/>
      <use xlink:href="#DejaVuSans-49" x="203.583984"/>
     </g>
    </g>
    <g id="line2d_46">
     <path d="M 541.042105 70.976562 
L 551.042105 70.976562 
L 561.042105 70.976562 
" style="fill: none; stroke: #808080; stroke-width: 1.5; stroke-linecap: square"/>
     <g>
      <use xlink:href="#me995e3e56d" x="551.042105" y="70.976562" style="fill: #808080"/>
     </g>
    </g>
    <g id="text_28">
     <!-- Placebo -->
     <g style="fill: #333333" transform="translate(569.042105 74.476562) scale(0.1 -0.1)">
      <use xlink:href="#DejaVuSans-50"/>
      <use xlink:href="#DejaVuSans-6c" x="60.302734"/>
      <use xlink:href="#DejaVuSans-61" x="88.085938"/>
      <use xlink:href="#DejaVuSans-63" x="149.365234"/>
      <use xlink:href="#DejaVuSans-65" x="204.345703"/>
      <use xlink:href="#DejaVuSans-62" x="265.869141"/>
      <use xlink:href="#DejaVuSans-6f" x="329.345703"/>
     </g>
    </g>
   </g>
  </g>
  <g id="axes_3">
   <g id="patch_11">
    <path d="M 1166.4 181.8 
C 1166.4 164.445184 1162.98148 147.259122 1156.340079 131.225363 
C 1149.698679 115.191604 1139.963557 100.621964 1127.691849 88.350256 
C 1115.420141 76.078549 1100.850501 66.343426 1084.816742 59.702026 
C 1068.782983 53.060626 1051.596921 49.642105 1034.242105 49.642105 
C 1016.88729 49.642105 999.701228 53.060626 983.667468 59.702026 
C 967.633709 66.343426 953.06407 76.078549 940.792362 88.350256 
C 928.520654 100.621964 918.785532 115.191604 912.144131 131.225363 
C 905.502731 147.259122 902.084211 164.445184 902.084211 181.8 
C 902.084211 199.154816 905.502731 216.340878 912.144131 232.374637 
C 918.785532 248.408396 928.520654 262.978036 940.792362 275.249744 
C 953.06407 287.521451 967.633709 297.256574 983.667468 303.897974 
C 999.701228 310.539374 1016.88729 313.957895 1034.242105 313.957895 
C 1051.596921 313.957895 1068.782983 310.539374 1084.816742 303.897974 
C 1100.850501 297.256574 1115.420141 287.521451 1127.691849 275.249744 
C 1139.963557 262.978036 1149.698679 248.408396 1156.340079 232.374637 
C 1162.98148 216.340878 1166.4 199.154816 1166.4 181.8 
M 1034.242105 181.8 
C 1034.242105 181.8 1034.242105 181.8 1034.242105 181.8 
C 1034.242105 181.8 1034.242105 181.8 1034.242105 181.8 
C 1034.242105 181.8 1034.242105 181.8 1034.242105 181.8 
C 1034.242105 181.8 1034.242105 181.8 1034.242105 181.8 
C 1034.242105 181.8 1034.242105 181.8 1034.242105 181.8 
C 1034.242105 181.8 1034.242105 181.8 1034.242105 181.8 
C 1034.242105 181.8 1034.242105 181.8 1034.242105 181.8 
C 1034.242105 181.8 1034.242105 181.8 1034.242105 181.8 
C 1034.242105 181.8 1034.242105 181.8 1034.242105 181.8 
C 1034.242105 181.8 1034.242105 181.8 1034.242105 181.8 
C 1034.242105 181.8 1034.242105 181.8 1034.242105 181.8 
C 1034.242105 181.8 1034.242105 181.8 1034.242105 181.8 
C 1034.242105 181.8 1034.242105 181.8 1034.242105 181.8 
C 1034.242105 181.8 1034.242105 181.8 1034.242105 181.8 
C 1034.242105 181.8 1034.242105 181.8 1034.242105 181.8 
C 1034.242105 181.8 1034.242105 181.8 1034.242105 181.8 
M 1166.4 181.8 
z
" style="fill: #ffffff"/>
   </g>
   <g id="patch_12">
    <path d="M 1161.623209 181.8 
L 1073.605031 60.653372 
L 956.951997 125.64545 
L 956.951997 237.95455 
L 1053.923568 242.373314 
z
" clip-path="url(#p039c9e5d79)" style="fill: #4682b4; opacity: 0.25; stroke: #4682b4; stroke-linejoin: miter"/>
   </g>
   <g id="patch_13">
    <path d="M 1097.932657 181.8 
L 1044.082837 151.513343 
L 1008.478736 163.081817 
L 982.715367 219.236367 
L 1073.605031 302.946628 
z
" clip-path="url(#p039c9e5d79)" style="fill: #808080; opacity: 0.25; stroke: #808080; stroke-linejoin: miter"/>
   </g>
   <g id="matplotlib.axis_5">
    <g id="xtick_6">
     <g id="line2d_47">
      <path d="M 1034.242105 181.8 
L 1166.4 181.8 
" clip-path="url(#p039c9e5d79)" style="fill: none; stroke-dasharray: 2.22,0.96; stroke-dashoffset: 0; stroke: #b0b0b0; stroke-opacity: 0.7; stroke-width: 0.6"/>
     </g>
     <g id="text_29">
      <!-- Motor OFF ↓ -->
      <g style="fill: #1a1a1a" transform="translate(1139.095313 185.11125) scale(0.12 -0.12)">
       <defs>
        <path id="DejaVuSans-4d" d="M 628 4666 
L 1569 4666 
L 2759 1491 
L 3956 4666 
L 4897 4666 
L 4897 0 
L 4281 0 
L 4281 4097 
L 3078 897 
L 2444 897 
L 1241 4097 
L 1241 0 
L 628 0 
L 628 4666 
z
" transform="scale(0.015625)"/>
        <path id="DejaVuSans-2193" d="M 2822 -22 
L 2541 -22 
L 1309 1209 
L 1684 1584 
L 2416 853 
L 2416 4666 
L 2947 4666 
L 2947 853 
L 3672 1584 
L 4047 1209 
L 2822 -22 
z
" transform="scale(0.015625)"/>
       </defs>
       <use xlink:href="#DejaVuSans-4d"/>
       <use xlink:href="#DejaVuSans-6f" x="86.279297"/>
       <use xlink:href="#DejaVuSans-74" x="147.460938"/>
       <use xlink:href="#DejaVuSans-6f" x="186.669922"/>
       <use xlink:href="#DejaVuSans-72" x="247.851562"/>
       <use xlink:href="#DejaVuSans-20" x="288.964844"/>
       <use xlink:href="#DejaVuSans-4f" x="320.751953"/>
       <use xlink:href="#DejaVuSans-46" x="399.462891"/>
       <use xlink:href="#DejaVuSans-46" x="456.982422"/>
       <use xlink:href="#DejaVuSans-20" x="514.501953"/>
       <use xlink:href="#DejaVuSans-2193" x="546.289062"/>
      </g>
     </g>
    </g>
    <g id="xtick_7">
     <g id="line2d_48">
      <path d="M 1034.242105 181.8 
L 1075.081141 56.110373 
" clip-path="url(#p039c9e5d79)" style="fill: none; stroke-dasharray: 2.22,0.96; stroke-dashoffset: 0; stroke: #b0b0b0; stroke-opacity: 0.7; stroke-width: 0.6"/>
     </g>
     <g id="text_30">
      <!-- Motor ON ↑ -->
      <g style="fill: #1a1a1a" transform="translate(1042.934257 49.43553) scale(0.12 -0.12)">
       <defs>
        <path id="DejaVuSans-2191" d="M 2541 4688 
L 2822 4688 
L 4047 3456 
L 3672 3081 
L 2947 3813 
L 2947 0 
L 2416 0 
L 2416 3813 
L 1684 3081 
L 1309 3456 
L 2541 4688 
z
" transform="scale(0.015625)"/>
       </defs>
       <use xlink:href="#DejaVuSans-4d"/>
       <use xlink:href="#DejaVuSans-6f" x="86.279297"/>
       <use xlink:href="#DejaVuSans-74" x="147.460938"/>
       <use xlink:href="#DejaVuSans-6f" x="186.669922"/>
       <use xlink:href="#DejaVuSans-72" x="247.851562"/>
       <use xlink:href="#DejaVuSans-20" x="288.964844"/>
       <use xlink:href="#DejaVuSans-4f" x="320.751953"/>
       <use xlink:href="#DejaVuSans-4e" x="399.462891"/>
       <use xlink:href="#DejaVuSans-20" x="474.267578"/>
       <use xlink:href="#DejaVuSans-2191" x="506.054688"/>
      </g>
     </g>
    </g>
    <g id="xtick_8">
     <g id="line2d_49">
      <path d="M 1034.242105 181.8 
L 927.324122 104.119538 
" clip-path="url(#p039c9e5d79)" style="fill: none; stroke-dasharray: 2.22,0.96; stroke-dashoffset: 0; stroke: #b0b0b0; stroke-opacity: 0.7; stroke-width: 0.6"/>
     </g>
     <g id="text_31">
      <!-- Sleep ↑ -->
      <g style="fill: #1a1a1a" transform="translate(895.226007 101.259043) scale(0.12 -0.12)">
       <use xlink:href="#DejaVuSans-53"/>
       <use xlink:href="#DejaVuSans-6c" x="63.476562"/>
       <use xlink:href="#DejaVuSans-65" x="91.259766"/>
       <use xlink:href="#DejaVuSans-65" x="152.783203"/>
       <use xlink:href="#DejaVuSans-70" x="214.306641"/>
       <use xlink:href="#DejaVuSans-20" x="277.783203"/>
       <use xlink:href="#DejaVuSans-2191" x="309.570312"/>
      </g>
     </g>
    </g>
    <g id="xtick_9">
     <g id="line2d_50">
      <path d="M 1034.242105 181.8 
L 927.324122 259.480462 
" clip-path="url(#p039c9e5d79)" style="fill: none; stroke-dasharray: 2.22,0.96; stroke-dashoffset: 0; stroke: #b0b0b0; stroke-opacity: 0.7; stroke-width: 0.6"/>
     </g>
     <g id="text_32">
      <!-- Global Impression ↑ -->
      <g style="fill: #1a1a1a" transform="translate(858.009132 268.963457) scale(0.12 -0.12)">
       <use xlink:href="#DejaVuSans-47"/>
       <use xlink:href="#DejaVuSans-6c" x="77.490234"/>
       <use xlink:href="#DejaVuSans-6f" x="105.273438"/>
       <use xlink:href="#DejaVuSans-62" x="166.455078"/>
       <use xlink:href="#DejaVuSans-61" x="229.931641"/>
       <use xlink:href="#DejaVuSans-6c" x="291.210938"/>
       <use xlink:href="#DejaVuSans-20" x="318.994141"/>
       <use xlink:href="#DejaVuSans-49" x="350.78125"/>
       <use xlink:href="#DejaVuSans-6d" x="380.273438"/>
       <use xlink:href="#DejaVuSans-70" x="477.685547"/>
       <use xlink:href="#DejaVuSans-72" x="541.162109"/>
       <use xlink:href="#DejaVuSans-65" x="580.025391"/>
       <use xlink:href="#DejaVuSans-73" x="641.548828"/>
       <use xlink:href="#DejaVuSans-73" x="693.648438"/>
       <use xlink:href="#DejaVuSans-69" x="745.748047"/>
       <use xlink:href="#DejaVuSans-6f" x="773.53125"/>
       <use xlink:href="#DejaVuSans-6e" x="834.712891"/>
       <use xlink:href="#DejaVuSans-20" x="898.091797"/>
       <use xlink:href="#DejaVuSans-2191" x="929.878906"/>
      </g>
     </g>
    </g>
    <g id="xtick_10">
     <g id="line2d_51">
      <path d="M 1034.242105 181.8 
L 1075.081141 307.489627 
" clip-path="url(#p039c9e5d79)" style="fill: none; stroke-dasharray: 2.22,0.96; stroke-dashoffset: 0; stroke: #b0b0b0; stroke-opacity: 0.7; stroke-width: 0.6"/>
     </g>
     <g id="text_33">
      <!-- Adverse Events ↓ -->
      <g style="fill: #1a1a1a" transform="translate(1024.833944 320.78697) scale(0.12 -0.12)">
       <defs>
        <path id="DejaVuSans-45" d="M 628 4666 
L 3578 4666 
L 3578 4134 
L 1259 4134 
L 1259 2753 
L 3481 2753 
L 3481 2222 
L 1259 2222 
L 1259 531 
L 3634 531 
L 3634 0 
L 628 0 
L 628 4666 
z
" transform="scale(0.015625)"/>
       </defs>
       <use xlink:href="#DejaVuSans-41"/>
       <use xlink:href="#DejaVuSans-64" x="66.658203"/>
       <use xlink:href="#DejaVuSans-76" x="130.134766"/>
       <use xlink:href="#DejaVuSans-65" x="189.314453"/>
       <use xlink:href="#DejaVuSans-72" x="250.837891"/>
       <use xlink:href="#DejaVuSans-73" x="291.951172"/>
       <use xlink:href="#DejaVuSans-65" x="344.050781"/>
       <use xlink:href="#DejaVuSans-20" x="405.574219"/>
       <use xlink:href="#DejaVuSans-45" x="437.361328"/>
       <use xlink:href="#DejaVuSans-76" x="500.544922"/>
       <use xlink:href="#DejaVuSans-65" x="559.724609"/>
       <use xlink:href="#DejaVuSans-6e" x="621.248047"/>
       <use xlink:href="#DejaVuSans-74" x="684.626953"/>
       <use xlink:href="#DejaVuSans-73" x="723.835938"/>
       <use xlink:href="#DejaVuSans-20" x="775.935547"/>
       <use xlink:href="#DejaVuSans-2193" x="807.722656"/>
      </g>
     </g>
    </g>
   </g>
   <g id="matplotlib.axis_6">
    <g id="ytick_17">
     <g id="line2d_52">
      <path d="M 1050.164743 181.8 
C 1050.164743 179.709058 1049.752873 177.638448 1048.952705 175.70667 
C 1048.152536 173.774892 1046.97963 172.019514 1045.501111 170.540995 
C 1044.022591 169.062476 1042.267213 167.889569 1040.335435 167.089401 
C 1038.403657 166.289232 1036.333047 165.877362 1034.242105 165.877362 
C 1032.151164 165.877362 1030.080554 166.289232 1028.148776 167.089401 
C 1026.216997 167.889569 1024.461619 169.062476 1022.9831 170.540995 
C 1021.504581 172.019514 1020.331675 173.774892 1019.531506 175.70667 
C 1018.731337 177.638448 1018.319467 179.709058 1018.319467 181.8 
C 1018.319467 183.890942 1018.731337 185.961552 1019.531506 187.89333 
C 1020.331675 189.825108 1021.504581 191.580486 1022.9831 193.059005 
C 1024.461619 194.537524 1026.216997 195.710431 1028.148776 196.510599 
C 1030.080554 197.310768 1032.151164 197.722638 1034.242105 197.722638 
C 1036.333047 197.722638 1038.403657 197.310768 1040.335435 196.510599 
C 1042.267213 195.710431 1044.022591 194.537524 1045.501111 193.059005 
C 1046.97963 191.580486 1048.152536 189.825108 1048.952705 187.89333 
C 1049.752873 185.961552 1050.164743 183.890942 1050.164743 181.8 
" clip-path="url(#p039c9e5d79)" style="fill: none; stroke-dasharray: 2.22,0.96; stroke-dashoffset: 0; stroke: #b0b0b0; stroke-opacity: 0.7; stroke-width: 0.6"/>
     </g>
    </g>
    <g id="ytick_18">
     <g id="line2d_53">
      <path d="M 1066.087381 181.8 
C 1066.087381 177.618117 1065.263641 173.476897 1063.663304 169.613341 
C 1062.062966 165.749784 1059.717154 162.239028 1056.760116 159.28199 
C 1053.803078 156.324951 1050.292321 153.979139 1046.428765 152.378801 
C 1042.565208 150.778464 1038.423989 149.954724 1034.242105 149.954724 
C 1030.060222 149.954724 1025.919002 150.778464 1022.055446 152.378801 
C 1018.191889 153.979139 1014.681133 156.324951 1011.724095 159.28199 
C 1008.767057 162.239028 1006.421244 165.749784 1004.820907 169.613341 
C 1003.220569 173.476897 1002.396829 177.618117 1002.396829 181.8 
C 1002.396829 185.981883 1003.220569 190.123103 1004.820907 193.986659 
C 1006.421244 197.850216 1008.767057 201.360972 1011.724095 204.31801 
C 1014.681133 207.275049 1018.191889 209.620861 1022.055446 211.221199 
C 1025.919002 212.821536 1030.060222 213.645276 1034.242105 213.645276 
C 1038.423989 213.645276 1042.565208 212.821536 1046.428765 211.221199 
C 1050.292321 209.620861 1053.803078 207.275049 1056.760116 204.31801 
C 1059.717154 201.360972 1062.062966 197.850216 1063.663304 193.986659 
C 1065.263641 190.123103 1066.087381 185.981883 1066.087381 181.8 
" clip-path="url(#p039c9e5d79)" style="fill: none; stroke-dasharray: 2.22,0.96; stroke-dashoffset: 0; stroke: #b0b0b0; stroke-opacity: 0.7; stroke-width: 0.6"/>
     </g>
    </g>
    <g id="ytick_19">
     <g id="line2d_54">
      <path d="M 1082.010019 181.8 
C 1082.010019 175.527175 1080.774409 169.315345 1078.373903 163.520011 
C 1075.973397 157.724676 1072.454678 152.458541 1068.019121 148.022984 
C 1063.583564 143.587427 1058.317429 140.068708 1052.522094 137.668202 
C 1046.72676 135.267696 1040.51493 134.032086 1034.242105 134.032086 
C 1027.96928 134.032086 1021.757451 135.267696 1015.962116 137.668202 
C 1010.166781 140.068708 1004.900647 143.587427 1000.46509 148.022984 
C 996.029532 152.458541 992.510814 157.724676 990.110307 163.520011 
C 987.709801 169.315345 986.474192 175.527175 986.474192 181.8 
C 986.474192 188.072825 987.709801 194.284655 990.110307 200.079989 
C 992.510814 205.875324 996.029532 211.141459 1000.46509 215.577016 
C 1004.900647 220.012573 1010.166781 223.531292 1015.962116 225.931798 
C 1021.757451 228.332304 1027.96928 229.567914 1034.242105 229.567914 
C 1040.51493 229.567914 1046.72676 228.332304 1052.522094 225.931798 
C 1058.317429 223.531292 1063.583564 220.012573 1068.019121 215.577016 
C 1072.454678 211.141459 1075.973397 205.875324 1078.373903 200.079989 
C 1080.774409 194.284655 1082.010019 188.072825 1082.010019 181.8 
" clip-path="url(#p039c9e5d79)" style="fill: none; stroke-dasharray: 2.22,0.96; stroke-dashoffset: 0; stroke: #b0b0b0; stroke-opacity: 0.7; stroke-width: 0.6"/>
     </g>
    </g>
    <g id="ytick_20">
     <g id="line2d_55">
      <path d="M 1097.932657 181.8 
C 1097.932657 173.436233 1096.285177 165.153794 1093.084502 157.426681 
C 1089.883827 149.699568 1085.192202 142.678055 1079.278126 136.763979 
C 1073.36405 130.849903 1066.342537 126.158278 1058.615424 122.957603 
C 1050.888311 119.756928 1042.605872 118.109448 1034.242105 118.109448 
C 1025.878339 118.109448 1017.595899 119.756928 1009.868786 122.957603 
C 1002.141674 126.158278 995.12016 130.849903 989.206084 136.763979 
C 983.292008 142.678055 978.600383 149.699568 975.399708 157.426681 
C 972.199033 165.153794 970.551554 173.436233 970.551554 181.8 
C 970.551554 190.163767 972.199033 198.446206 975.399708 206.173319 
C 978.600383 213.900432 983.292008 220.921945 989.206084 226.836021 
C 995.12016 232.750097 1002.141674 237.441722 1009.868786 240.642397 
C 1017.595899 243.843072 1025.878339 245.490552 1034.242105 245.490552 
C 1042.605872 245.490552 1050.888311 243.843072 1058.615424 240.642397 
C 1066.342537 237.441722 1073.36405 232.750097 1079.278126 226.836021 
C 1085.192202 220.921945 1089.883827 213.900432 1093.084502 206.173319 
C 1096.285177 198.446206 1097.932657 190.163767 1097.932657 181.8 
" clip-path="url(#p039c9e5d79)" style="fill: none; stroke-dasharray: 2.22,0.96; stroke-dashoffset: 0; stroke: #b0b0b0; stroke-opacity: 0.7; stroke-width: 0.6"/>
     </g>
    </g>
    <g id="ytick_21">
     <g id="line2d_56">
      <path d="M 1113.855295 181.8 
C 1113.855295 171.345292 1111.795945 160.992242 1107.795102 151.333351 
C 1103.794258 141.67446 1097.929727 132.897569 1090.537132 125.504974 
C 1083.144536 118.112379 1074.367645 112.247847 1064.708754 108.247004 
C 1055.049863 104.24616 1044.696814 102.18681 1034.242105 102.18681 
C 1023.787397 102.18681 1013.434348 104.24616 1003.775457 108.247004 
C 994.116566 112.247847 985.339674 118.112379 977.947079 125.504974 
C 970.554484 132.897569 964.689953 141.67446 960.689109 151.333351 
C 956.688265 160.992242 954.628916 171.345292 954.628916 181.8 
C 954.628916 192.254708 956.688265 202.607758 960.689109 212.266649 
C 964.689953 221.92554 970.554484 230.702431 977.947079 238.095026 
C 985.339674 245.487621 994.116566 251.352153 1003.775457 255.352996 
C 1013.434348 259.35384 1023.787397 261.41319 1034.242105 261.41319 
C 1044.696814 261.41319 1055.049863 259.35384 1064.708754 255.352996 
C 1074.367645 251.352153 1083.144536 245.487621 1090.537132 238.095026 
C 1097.929727 230.702431 1103.794258 221.92554 1107.795102 212.266649 
C 1111.795945 202.607758 1113.855295 192.254708 1113.855295 181.8 
" clip-path="url(#p039c9e5d79)" style="fill: none; stroke-dasharray: 2.22,0.96; stroke-dashoffset: 0; stroke: #b0b0b0; stroke-opacity: 0.7; stroke-width: 0.6"/>
     </g>
    </g>
    <g id="ytick_22">
     <g id="line2d_57">
      <path d="M 1129.777933 181.8 
C 1129.777933 169.25435 1127.306713 156.830691 1122.505701 145.240022 
C 1117.704689 133.649352 1110.667251 123.117083 1101.796137 114.245969 
C 1092.925023 105.374854 1082.392753 98.337417 1070.802084 93.536404 
C 1059.211414 88.735392 1046.787755 86.264172 1034.242105 86.264172 
C 1021.696455 86.264172 1009.272796 88.735392 997.682127 93.536404 
C 986.091458 98.337417 975.559188 105.374854 966.688074 114.245969 
C 957.81696 123.117083 950.779522 133.649352 945.97851 145.240022 
C 941.177497 156.830691 938.706278 169.25435 938.706278 181.8 
C 938.706278 194.34565 941.177497 206.769309 945.97851 218.359978 
C 950.779522 229.950648 957.81696 240.482917 966.688074 249.354031 
C 975.559188 258.225146 986.091458 265.262583 997.682127 270.063596 
C 1009.272796 274.864608 1021.696455 277.335828 1034.242105 277.335828 
C 1046.787755 277.335828 1059.211414 274.864608 1070.802084 270.063596 
C 1082.392753 265.262583 1092.925023 258.225146 1101.796137 249.354031 
C 1110.667251 240.482917 1117.704689 229.950648 1122.505701 218.359978 
C 1127.306713 206.769309 1129.777933 194.34565 1129.777933 181.8 
" clip-path="url(#p039c9e5d79)" style="fill: none; stroke-dasharray: 2.22,0.96; stroke-dashoffset: 0; stroke: #b0b0b0; stroke-opacity: 0.7; stroke-width: 0.6"/>
     </g>
    </g>
    <g id="ytick_23">
     <g id="line2d_58">
      <path d="M 1145.700571 181.8 
C 1145.700571 167.163408 1142.817481 152.669139 1137.2163 139.146692 
C 1131.615119 125.624244 1123.404775 113.336596 1113.055142 102.986963 
C 1102.705509 92.63733 1090.417861 84.426986 1076.895413 78.825805 
C 1063.372966 73.224624 1048.878697 70.341535 1034.242105 70.341535 
C 1019.605514 70.341535 1005.111245 73.224624 991.588797 78.825805 
C 978.06635 84.426986 965.778702 92.63733 955.429069 102.986963 
C 945.079435 113.336596 936.869091 125.624244 931.26791 139.146692 
C 925.666729 152.669139 922.78364 167.163408 922.78364 181.8 
C 922.78364 196.436592 925.666729 210.930861 931.26791 224.453308 
C 936.869091 237.975756 945.079435 250.263404 955.429069 260.613037 
C 965.778702 270.96267 978.06635 279.173014 991.588797 284.774195 
C 1005.111245 290.375376 1019.605514 293.258465 1034.242105 293.258465 
C 1048.878697 293.258465 1063.372966 290.375376 1076.895413 284.774195 
C 1090.417861 279.173014 1102.705509 270.96267 1113.055142 260.613037 
C 1123.404775 250.263404 1131.615119 237.975756 1137.2163 224.453308 
C 1142.817481 210.930861 1145.700571 196.436592 1145.700571 181.8 
" clip-path="url(#p039c9e5d79)" style="fill: none; stroke-dasharray: 2.22,0.96; stroke-dashoffset: 0; stroke: #b0b0b0; stroke-opacity: 0.7; stroke-width: 0.6"/>
     </g>
    </g>
    <g id="ytick_24">
     <g id="line2d_59">
      <path d="M 1161.623209 181.8 
C 1161.623209 165.072467 1158.328249 148.507588 1151.926899 133.053362 
C 1145.52555 117.599137 1136.142299 103.55611 1124.314147 91.727958 
C 1112.485995 79.899806 1098.442969 70.516556 1082.988743 64.115206 
C 1067.534518 57.713856 1050.969638 54.418897 1034.242105 54.418897 
C 1017.514572 54.418897 1000.949693 57.713856 985.495467 64.115206 
C 970.041242 70.516556 955.998215 79.899806 944.170063 91.727958 
C 932.341911 103.55611 922.958661 117.599137 916.557311 133.053362 
C 910.155961 148.507588 906.861002 165.072467 906.861002 181.8 
C 906.861002 198.527533 910.155961 215.092412 916.557311 230.546638 
C 922.958661 246.000863 932.341911 260.04389 944.170063 271.872042 
C 955.998215 283.700194 970.041242 293.083444 985.495467 299.484794 
C 1000.949693 305.886144 1017.514572 309.181103 1034.242105 309.181103 
C 1050.969638 309.181103 1067.534518 305.886144 1082.988743 299.484794 
C 1098.442969 293.083444 1112.485995 283.700194 1124.314147 271.872042 
C 1136.142299 260.04389 1145.52555 246.000863 1151.926899 230.546638 
C 1158.328249 215.092412 1161.623209 198.527533 1161.623209 181.8 
" clip-path="url(#p039c9e5d79)" style="fill: none; stroke-dasharray: 2.22,0.96; stroke-dashoffset: 0; stroke: #b0b0b0; stroke-opacity: 0.7; stroke-width: 0.6"/>
     </g>
    </g>
   </g>
   <g id="line2d_60">
    <path d="M 1161.623209 181.8 
L 1073.605031 60.653372 
L 956.951997 125.64545 
L 956.951997 237.95455 
L 1053.923568 242.373314 
L 1161.623209 181.8 
" clip-path="url(#p039c9e5d79)" style="fill: none; stroke: #4682b4; stroke-width: 1.5; stroke-linecap: square"/>
   </g>
   <g id="line2d_61">
    <path d="M 1097.932657 181.8 
L 1044.082837 151.513343 
L 1008.478736 163.081817 
L 982.715367 219.236367 
L 1073.605031 302.946628 
L 1097.932657 181.8 
" clip-path="url(#p039c9e5d79)" style="fill: none; stroke: #808080; stroke-width: 1.5; stroke-linecap: square"/>
   </g>
   <g id="patch_14">
    <path d="M 1166.4 181.8 
C 1166.4 164.445184 1162.98148 147.259122 1156.340079 131.225363 
C 1149.698679 115.191604 1139.963557 100.621964 1127.691849 88.350256 
C 1115.420141 76.078549 1100.850501 66.343426 1084.816742 59.702026 
C 1068.782983 53.060626 1051.596921 49.642105 1034.242105 49.642105 
C 1016.88729 49.642105 999.701228 53.060626 983.667468 59.702026 
C 967.633709 66.343426 953.06407 76.078549 940.792362 88.350256 
C 928.520654 100.621964 918.785532 115.191604 912.144131 131.225363 
C 905.502731 147.259122 902.084211 164.445184 902.084211 181.8 
C 902.084211 199.154816 905.502731 216.340878 912.144131 232.374637 
C 918.785532 248.408396 928.520654 262.978036 940.792362 275.249744 
C 953.06407 287.521451 967.633709 297.256574 983.667468 303.897974 
C 999.701228 310.539374 1016.88729 313.957895 1034.242105 313.957895 
C 1051.596921 313.957895 1068.782983 310.539374 1084.816742 303.897974 
C 1100.850501 297.256574 1115.420141 287.521451 1127.691849 275.249744 
C 1139.963557 262.978036 1149.698679 248.408396 1156.340079 232.374637 
C 1162.98148 216.340878 1166.4 199.154816 1166.4 181.8 
" style="fill: none; stroke: #1a1a1a; stroke-linejoin: miter; stroke-linecap: square"/>
   </g>
   <g id="text_34">
    <!-- TOLEDO Effect Domains (Qualitative Scale) -->
    <g style="fill: #333333" transform="translate(861.025855 34.317405) scale(0.16 -0.16)">
     <defs>
      <path id="DejaVuSans-4c" d="M 628 4666 
L 1259 4666 
L 1259 531 
L 3531 531 
L 3531 0 
L 628 0 
L 628 4666 
z
" transform="scale(0.015625)"/>
      <path id="DejaVuSans-66" d="M 2375 4863 
L 2375 4384 
L 1825 4384 
Q 1516 4384 1395 4259 
Q 1275 4134 1275 3809 
L 1275 3500 
L 2222 3500 
L 2222 3053 
L 1275 3053 
L 1275 0 
L 697 0 
L 697 3053 
L 147 3053 
L 147 3500 
L 697 3500 
L 697 3744 
Q 697 4328 969 4595 
Q 1241 4863 1831 4863 
L 2375 4863 
z
" transform="scale(0.015625)"/>
      <path id="DejaVuSans-51" d="M 2522 4238 
Q 1834 4238 1429 3725 
Q 1025 3213 1025 2328 
Q 1025 1447 1429 934 
Q 1834 422 2522 422 
Q 3209 422 3611 934 
Q 4013 1447 4013 2328 
Q 4013 3213 3611 3725 
Q 3209 4238 2522 4238 
z
M 3406 84 
L 4238 -825 
L 3475 -825 
L 2784 -78 
Q 2681 -84 2626 -87 
Q 2572 -91 2522 -91 
Q 1538 -91 948 567 
Q 359 1225 359 2328 
Q 359 3434 948 4092 
Q 1538 4750 2522 4750 
Q 3503 4750 4090 4092 
Q 4678 3434 4678 2328 
Q 4678 1516 4351 937 
Q 4025 359 3406 84 
z
" transform="scale(0.015625)"/>
     </defs>
     <use xlink:href="#DejaVuSans-54"/>
     <use xlink:href="#DejaVuSans-4f" x="61.083984"/>
     <use xlink:href="#DejaVuSans-4c" x="139.794922"/>
     <use xlink:href="#DejaVuSans-45" x="195.507812"/>
     <use xlink:href="#DejaVuSans-44" x="258.691406"/>
     <use xlink:href="#DejaVuSans-4f" x="335.693359"/>
     <use xlink:href="#DejaVuSans-20" x="414.404297"/>
     <use xlink:href="#DejaVuSans-45" x="446.191406"/>
     <use xlink:href="#DejaVuSans-66" x="509.375"/>
     <use xlink:href="#DejaVuSans-66" x="544.580078"/>
     <use xlink:href="#DejaVuSans-65" x="579.785156"/>
     <use xlink:href="#DejaVuSans-63" x="641.308594"/>
     <use xlink:href="#DejaVuSans-74" x="696.289062"/>
     <use xlink:href="#DejaVuSans-20" x="735.498047"/>
     <use xlink:href="#DejaVuSans-44" x="767.285156"/>
     <use xlink:href="#DejaVuSans-6f" x="844.287109"/>
     <use xlink:href="#DejaVuSans-6d" x="905.46875"/>
     <use xlink:href="#DejaVuSans-61" x="1002.880859"/>
     <use xlink:href="#DejaVuSans-69" x="1064.160156"/>
     <use xlink:href="#DejaVuSans-6e" x="1091.943359"/>
     <use xlink:href="#DejaVuSans-73" x="1155.322266"/>
     <use xlink:href="#DejaVuSans-20" x="1207.421875"/>
     <use xlink:href="#DejaVuSans-28" x="1239.208984"/>
     <use xlink:href="#DejaVuSans-51" x="1278.222656"/>
     <use xlink:href="#DejaVuSans-75" x="1356.933594"/>
     <use xlink:href="#DejaVuSans-61" x="1420.3125"/>
     <use xlink:href="#DejaVuSans-6c" x="1481.591797"/>
     <use xlink:href="#DejaVuSans-69" x="1509.375"/>
     <use xlink:href="#DejaVuSans-74" x="1537.158203"/>
     <use xlink:href="#DejaVuSans-61" x="1576.367188"/>
     <use xlink:href="#DejaVuSans-74" x="1637.646484"/>
     <use xlink:href="#DejaVuSans-69" x="1676.855469"/>
     <use xlink:href="#DejaVuSans-76" x="1704.638672"/>
     <use xlink:href="#DejaVuSans-65" x="1763.818359"/>
     <use xlink:href="#DejaVuSans-20" x="1825.341797"/>
     <use xlink:href="#DejaVuSans-53" x="1857.128906"/>
     <use xlink:href="#DejaVuSans-63" x="1920.605469"/>
     <use xlink:href="#DejaVuSans-61" x="1975.585938"/>
     <use xlink:href="#DejaVuSans-6c" x="2036.865234"/>
     <use xlink:href="#DejaVuSans-65" x="2064.648438"/>
     <use xlink:href="#DejaVuSans-29" x="2126.171875"/>
    </g>
   </g>
   <g id="legend_2">
    <g id="patch_15">
     <path d="M 1141.20847 60.566776 
L 1212.263158 60.566776 
Q 1214.263158 60.566776 1214.263158 58.566776 
L 1214.263158 30.210526 
Q 1214.263158 28.210526 1212.263158 28.210526 
L 1141.20847 28.210526 
Q 1139.20847 28.210526 1139.20847 30.210526 
L 1139.20847 58.566776 
Q 1139.20847 60.566776 1141.20847 60.566776 
z
" style="fill: #ffffff; opacity: 0.8; stroke: #cccccc; stroke-linejoin: miter"/>
    </g>
    <g id="line2d_62">
     <path d="M 1143.20847 36.308964 
L 1153.20847 36.308964 
L 1163.20847 36.308964 
" style="fill: none; stroke: #4682b4; stroke-width: 1.5; stroke-linecap: square"/>
    </g>
    <g id="text_35">
     <!-- CSAI -->
     <g style="fill: #333333" transform="translate(1171.20847 39.808964) scale(0.1 -0.1)">
      <use xlink:href="#DejaVuSans-43"/>
      <use xlink:href="#DejaVuSans-53" x="69.824219"/>
      <use xlink:href="#DejaVuSans-41" x="135.175781"/>
      <use xlink:href="#DejaVuSans-49" x="203.583984"/>
     </g>
    </g>
    <g id="line2d_63">
     <path d="M 1143.20847 50.987089 
L 1153.20847 50.987089 
L 1163.20847 50.987089 
" style="fill: none; stroke: #808080; stroke-width: 1.5; stroke-linecap: square"/>
    </g>
    <g id="text_36">
     <!-- Placebo -->
     <g style="fill: #333333" transform="translate(1171.20847 54.487089) scale(0.1 -0.1)">
      <use xlink:href="#DejaVuSans-50"/>
      <use xlink:href="#DejaVuSans-6c" x="60.302734"/>
      <use xlink:href="#DejaVuSans-61" x="88.085938"/>
      <use xlink:href="#DejaVuSans-63" x="149.365234"/>
      <use xlink:href="#DejaVuSans-65" x="204.345703"/>
      <use xlink:href="#DejaVuSans-62" x="265.869141"/>
      <use xlink:href="#DejaVuSans-6f" x="329.345703"/>
     </g>
    </g>
   </g>
  </g>
 </g>
 <defs>
  <clipPath id="pf7b733234d">
   <rect x="162" y="43.2" width="264.315789" height="277.2"/>
  </clipPath>
  <clipPath id="pc98425b848">
   <rect x="532.042105" y="43.2" width="264.315789" height="277.2"/>
  </clipPath>
  <clipPath id="p039c9e5d79">
   <path d="M 1166.4 181.8 
C 1166.4 164.445184 1162.98148 147.259122 1156.340079 131.225363 
C 1149.698679 115.191604 1139.963557 100.621964 1127.691849 88.350256 
C 1115.420141 76.078549 1100.850501 66.343426 1084.816742 59.702026 
C 1068.782983 53.060626 1051.596921 49.642105 1034.242105 49.642105 
C 1016.88729 49.642105 999.701228 53.060626 983.667468 59.702026 
C 967.633709 66.343426 953.06407 76.078549 940.792362 88.350256 
C 928.520654 100.621964 918.785532 115.191604 912.144131 131.225363 
C 905.502731 147.259122 902.084211 164.445184 902.084211 181.8 
C 902.084211 199.154816 905.502731 216.340878 912.144131 232.374637 
C 918.785532 248.408396 928.520654 262.978036 940.792362 275.249744 
C 953.06407 287.521451 967.633709 297.256574 983.667468 303.897974 
C 999.701228 310.539374 1016.88729 313.957895 1034.242105 313.957895 
C 1051.596921 313.957895 1068.782983 310.539374 1084.816742 303.897974 
C 1100.850501 297.256574 1115.420141 287.521451 1127.691849 275.249744 
C 1139.963557 262.978036 1149.698679 248.408396 1156.340079 232.374637 
C 1162.98148 216.340878 1166.4 199.154816 1166.4 181.8 
M 1034.242105 181.8 
C 1034.242105 181.8 1034.242105 181.8 1034.242105 181.8 
C 1034.242105 181.8 1034.242105 181.8 1034.242105 181.8 
C 1034.242105 181.8 1034.242105 181.8 1034.242105 181.8 
C 1034.242105 181.8 1034.242105 181.8 1034.242105 181.8 
C 1034.242105 181.8 1034.242105 181.8 1034.242105 181.8 
C 1034.242105 181.8 1034.242105 181.8 1034.242105 181.8 
C 1034.242105 181.8 1034.242105 181.8 1034.242105 181.8 
C 1034.242105 181.8 1034.242105 181.8 1034.242105 181.8 
C 1034.242105 181.8 1034.242105 181.8 1034.242105 181.8 
C 1034.242105 181.8 1034.242105 181.8 1034.242105 181.8 
C 1034.242105 181.8 1034.242105 181.8 1034.242105 181.8 
C 1034.242105 181.8 1034.242105 181.8 1034.242105 181.8 
C 1034.242105 181.8 1034.242105 181.8 1034.242105 181.8 
C 1034.242105 181.8 1034.242105 181.8 1034.242105 181.8 
C 1034.242105 181.8 1034.242105 181.8 1034.242105 181.8 
C 1034.242105 181.8 1034.242105 181.8 1034.242105 181.8 
M 1166.4 181.8 
z
"/>
  </clipPath>
 </defs>
</svg>
